<svg width="64" height="64" viewBox="0 0 64 64" fill="none" xmlns="http://www.w3.org/2000/svg">
<g clip-path="url(#clip0_3_1256)">
<mask id="mask0_3_1256" style="mask-type:alpha" maskUnits="userSpaceOnUse" x="0" y="0" width="64" height="64">
<path d="M32 64C49.6731 64 64 49.6731 64 32C64 14.3269 49.6731 0 32 0C14.3269 0 0 14.3269 0 32C0 49.6731 14.3269 64 32 64Z" fill="#D9D9D9"/>
</mask>
<g mask="url(#mask0_3_1256)">
<path d="M44 0H20V64H44V0Z" fill="#FFD400"/>
<path d="M20 0H0V64H20V0Z" fill="#231D9A"/>
<path d="M64 0H44V64H64V0Z" fill="#F0263C"/>
</g>
<path fill-rule="evenodd" clip-rule="evenodd" d="M24.0003 24.1465L25.5559 26.6667H23.3337L22.667 30.0073L24.8892 32.8205L23.3337 37.4359V39.3846L29.7781 41.6557L29.3337 42.8278L30.667 43.7656L31.3337 43.5311L32.0003 44V43.9487L32.667 43.4799L33.3337 43.7143L34.667 42.7766L34.2225 41.6044L40.667 39.3333V37.3846L39.1114 32.8205L41.3337 30.0073L40.667 26.9597H38.4448L40.0003 24.1465L38.8892 22.7399H36.0003V23.9121H34.2225L34.667 21.8022L33.7781 21.3333L32.0003 21.8022L30.2225 21.3333L29.3337 21.8022L29.7781 23.9121H28.0003V22.7399H25.1114L24.0003 24.1465Z" fill="#CC9500"/>
<path d="M30.667 26.6666H26.667V32H30.667V26.6666Z" fill="#F0263C"/>
<path d="M26.667 33.3334H30.667V38.6667L26.667 37.3334V33.3334Z" fill="#FFD400"/>
<path d="M37.333 33.3334H33.333V38.6667L37.333 37.3334V33.3334Z" fill="#FFD400"/>
<path d="M37.333 26.6666H33.333V32H37.333V26.6666Z" fill="#FFD400"/>
<path d="M34.6663 26.6666H33.333V32H34.6663V26.6666Z" fill="#F0263C"/>
<path d="M29.333 33.3334H30.6663V38.6667L29.333 38.238V33.3334Z" fill="#F0263C"/>
<path d="M26.667 33.3334H28.0003V37.7621L26.667 37.3334V33.3334Z" fill="#F0263C"/>
<path d="M37.3333 26.6666H36V32H37.3333V26.6666Z" fill="#F0263C"/>
<path d="M27.333 29.3333L27.9997 30.6667H29.333L29.9997 29.3333L28.6663 28L27.333 29.3333Z" fill="#FFD400"/>
<path d="M33.333 33.3334H34.6663L33.333 34.6667V33.3334Z" fill="#F0263C"/>
<path d="M33.333 36H34.6663L33.333 37.3333V36Z" fill="#F0263C"/>
<path d="M37.3337 33.3334H34.667V34.6667H37.3337V33.3334Z" fill="#F0263C"/>
<path d="M37.3337 36H34.667V37.3333H37.3337V36Z" fill="#F0263C"/>
</g>
<defs>
<clipPath id="clip0_3_1256">
<rect width="64" height="64" fill="white"/>
</clipPath>
</defs>
</svg>
