<svg width="64" height="64" viewBox="0 0 64 64" fill="none" xmlns="http://www.w3.org/2000/svg">
<g clip-path="url(#clip0_3_381)">
<mask id="mask0_3_381" style="mask-type:luminance" maskUnits="userSpaceOnUse" x="0" y="0" width="64" height="64">
<path d="M64 32C64 14.3269 49.6731 0 32 0C14.3269 0 0 14.3269 0 32C0 49.6731 14.3269 64 32 64C49.6731 64 64 49.6731 64 32Z" fill="white"/>
</mask>
<g mask="url(#mask0_3_381)">
<path d="M64 32C64 14.3269 49.6731 0 32 0C14.3269 0 0 14.3269 0 32C0 49.6731 14.3269 64 32 64C49.6731 64 64 49.6731 64 32Z" fill="white"/>
<mask id="mask1_3_381" style="mask-type:alpha" maskUnits="userSpaceOnUse" x="0" y="0" width="64" height="64">
<path d="M32 64C49.6731 64 64 49.6731 64 32C64 14.3269 49.6731 0 32 0C14.3269 0 0 14.3269 0 32C0 49.6731 14.3269 64 32 64Z" fill="#C4C4C4"/>
</mask>
<g mask="url(#mask1_3_381)">
<path d="M0 0H96V64H0" fill="white"/>
<path d="M82.6001 0H7.7334L24.0709 6.4L7.7334 12.8L24.0709 19.2L7.7334 25.6L24.0709 32L7.7334 38.4L24.0709 44.8L7.7334 51.2L24.0709 57.6L7.7334 64H82.6001" fill="#F0263C"/>
</g>
</g>
</g>
<defs>
<clipPath id="clip0_3_381">
<rect width="64" height="64" rx="32" fill="white"/>
</clipPath>
</defs>
</svg>
