<svg width="64" height="64" viewBox="0 0 64 64" fill="none" xmlns="http://www.w3.org/2000/svg">
<g clip-path="url(#clip0_3_1365)">
<mask id="mask0_3_1365" style="mask-type:luminance" maskUnits="userSpaceOnUse" x="0" y="0" width="64" height="64">
<path d="M64 0H0V64H64V0Z" fill="white"/>
</mask>
<g mask="url(#mask0_3_1365)">
<path d="M32.0005 64C40.4671 64 48.1338 60.7334 53.8671 55.3334H10.1338C15.8671 60.7334 23.5338 64 32.0005 64Z" fill="#231D9A"/>
<path d="M4.66725 48.6667H59.3339C60.6006 46.6 61.6673 44.3334 62.4006 42H1.60059C2.40059 44.3334 3.40059 46.6 4.66725 48.6667Z" fill="#231D9A"/>
<path d="M32.001 22H62.401C61.601 19.6667 60.601 17.4 59.3343 15.3334H32.001V22Z" fill="#231D9A"/>
<path d="M53.8676 8.66675H32.001V15.3334H59.3343C57.801 12.8667 56.001 10.6001 53.8676 8.66675Z" fill="white"/>
<path d="M32.001 28.6667H63.801C63.5343 26.3334 63.0676 24.1334 62.401 22H32.001V28.6667Z" fill="white"/>
<path d="M10.1337 55.3334H53.9337C56.0003 53.4001 57.867 51.1334 59.3337 48.6667H4.66699C6.20033 51.1334 8.00033 53.4001 10.1337 55.3334Z" fill="white"/>
<path d="M1.6 22C0.866667 24.1333 0.4 26.3333 0.2 28.6667C0.0666667 29.7333 0 30.8667 0 32C0 33.1333 0.0666667 34.2667 0.2 35.3333H13.3333V22H1.6Z" fill="#231D9A"/>
<path d="M63.8 28.6667H32V22H20V35.3333H63.8C63.9333 34.2667 64 33.1333 64 32C64 30.8667 63.9333 29.7333 63.8 28.6667Z" fill="#231D9A"/>
<path d="M13.3337 6C12.2003 6.8 11.1337 7.66667 10.1337 8.66667C8.00033 10.6 6.20033 12.8667 4.66699 15.3333H13.3337V6Z" fill="#231D9A"/>
<path d="M16.7334 3.86656C17.2001 3.59989 17.6001 3.39989 18.0667 3.19989C17.6001 3.39989 17.2001 3.66656 16.7334 3.86656Z" fill="#231D9A"/>
<path d="M13.4004 6C13.8671 5.66667 14.4004 5.33333 14.8671 5C14.4004 5.26667 13.8671 5.6 13.4004 6Z" fill="#231D9A"/>
<path d="M31.9997 0C27.133 0 22.4663 1.13333 18.333 3.06667C18.8663 2.8 19.4663 2.53333 19.9997 2.33333V15.3333H31.9997V8.66667H53.8663C48.133 3.26667 40.4663 0 31.9997 0Z" fill="#231D9A"/>
<path d="M20.0002 35.3333V22H32.0002V15.3333H20.0002V2.33331C19.4669 2.53331 18.8669 2.79997 18.3335 3.06664C18.2669 3.13331 18.1335 3.13331 18.0669 3.19998C17.6002 3.39998 17.2002 3.66664 16.7335 3.86664C16.6002 3.93331 16.5335 3.99997 16.4002 4.06664C15.9335 4.33331 15.4669 4.59998 15.0002 4.86664C14.9335 4.86664 14.9335 4.93331 14.8669 4.93331C14.3335 5.26664 13.8669 5.59997 13.4002 5.93331C13.4002 5.99997 13.3335 5.99998 13.3335 5.99998V15.3333H4.66686C3.4002 17.4 2.33353 19.6667 1.6002 22H13.3335V35.3333H0.200195C0.466862 37.6667 0.933529 39.8667 1.6002 42H62.4002C63.1335 39.8667 63.6002 37.6667 63.8002 35.3333H20.0002Z" fill="white"/>
</g>
</g>
<defs>
<clipPath id="clip0_3_1365">
<rect width="64" height="64" fill="white"/>
</clipPath>
</defs>
</svg>
