<svg width="64" height="64" viewBox="0 0 64 64" fill="none" xmlns="http://www.w3.org/2000/svg">
<g clip-path="url(#clip0_3_723)">
<mask id="mask0_3_723" style="mask-type:luminance" maskUnits="userSpaceOnUse" x="0" y="0" width="64" height="64">
<path d="M64 32C64 14.3269 49.6731 0 32 0C14.3269 0 0 14.3269 0 32C0 49.6731 14.3269 64 32 64C49.6731 64 64 49.6731 64 32Z" fill="white"/>
</mask>
<g mask="url(#mask0_3_723)">
<path d="M64 32C64 14.3269 49.6731 0 32 0C14.3269 0 0 14.3269 0 32C0 49.6731 14.3269 64 32 64C49.6731 64 64 49.6731 64 32Z" fill="white"/>
<mask id="mask1_3_723" style="mask-type:alpha" maskUnits="userSpaceOnUse" x="0" y="0" width="64" height="64">
<path d="M32 64C49.6731 64 64 49.6731 64 32C64 14.3269 49.6731 0 32 0C14.3269 0 0 14.3269 0 32C0 49.6731 14.3269 64 32 64Z" fill="white"/>
</mask>
<g mask="url(#mask1_3_723)">
<path d="M0 0H128V64H0V0Z" fill="#005B13"/>
<path d="M0 21.3335H128V64.0002H0V21.3335Z" fill="white"/>
<path d="M0 42.6665H128V63.9998H0V42.6665Z" fill="#F0263C"/>
<path d="M0 0L32 21.3333V42.6667L0 64V0Z" fill="black"/>
</g>
</g>
</g>
<defs>
<clipPath id="clip0_3_723">
<rect width="64" height="64" rx="32" fill="white"/>
</clipPath>
</defs>
</svg>
