<svg width="64" height="64" viewBox="0 0 64 64" fill="none" xmlns="http://www.w3.org/2000/svg">
<g clip-path="url(#clip0_3_737)">
<mask id="mask0_3_737" style="mask-type:luminance" maskUnits="userSpaceOnUse" x="0" y="0" width="64" height="64">
<path d="M64 32C64 14.3269 49.6731 0 32 0C14.3269 0 0 14.3269 0 32C0 49.6731 14.3269 64 32 64C49.6731 64 64 49.6731 64 32Z" fill="white"/>
</mask>
<g mask="url(#mask0_3_737)">
<path d="M64 32C64 14.3269 49.6731 0 32 0C14.3269 0 0 14.3269 0 32C0 49.6731 14.3269 64 32 64C49.6731 64 64 49.6731 64 32Z" fill="white"/>
<mask id="mask1_3_737" style="mask-type:alpha" maskUnits="userSpaceOnUse" x="0" y="0" width="64" height="64">
<path d="M32 64C49.6731 64 64 49.6731 64 32C64 14.3269 49.6731 0 32 0C14.3269 0 0 14.3269 0 32C0 49.6731 14.3269 64 32 64Z" fill="white"/>
</mask>
<g mask="url(#mask1_3_737)">
<path d="M6 0H64V64H6V0Z" fill="white"/>
<path d="M0 0H64V64H0V0Z" fill="#F0263C"/>
<path d="M0 15.9507H64V47.5556H0V15.9507Z" fill="#231D9A"/>
<path d="M31.8 40.6C36.6601 40.6 40.6 36.6601 40.6 31.8C40.6 26.9399 36.6601 23 31.8 23C26.9399 23 23 26.9399 23 31.8C23 36.6601 26.9399 40.6 31.8 40.6Z" fill="white"/>
</g>
</g>
</g>
<defs>
<clipPath id="clip0_3_737">
<rect width="64" height="64" rx="32" fill="white"/>
</clipPath>
</defs>
</svg>
