<svg width="64" height="64" viewBox="0 0 64 64" fill="none" xmlns="http://www.w3.org/2000/svg">
<g clip-path="url(#clip0_3_1444)">
<mask id="mask0_3_1444" style="mask-type:luminance" maskUnits="userSpaceOnUse" x="0" y="0" width="64" height="64">
<path d="M64 0H0V64H64V0Z" fill="white"/>
</mask>
<g mask="url(#mask0_3_1444)">
<path d="M0 32C0 35.7334 0.666667 39.3334 1.8 42.6667H62.1333C63.3333 39.3334 64 35.7334 64 32C64 28.2667 63.3333 24.6667 62.2 21.3334H1.8C0.666667 24.6667 0 28.2667 0 32Z" fill="white"/>
<path d="M1.80078 21.3333H62.1341C57.8008 8.93333 45.9341 0 32.0008 0C18.0674 0 6.20078 8.93333 1.80078 21.3333Z" fill="#F0263C"/>
<path d="M62.2008 42.6666H1.80078C6.20078 55.0666 18.0674 64 32.0008 64C45.9341 64 57.8008 55.0666 62.2008 42.6666Z" fill="#78C9FF"/>
</g>
</g>
<defs>
<clipPath id="clip0_3_1444">
<rect width="64" height="64" fill="white"/>
</clipPath>
</defs>
</svg>
