<svg width="64" height="64" viewBox="0 0 64 64" fill="none" xmlns="http://www.w3.org/2000/svg">
<g clip-path="url(#clip0_3_794)">
<mask id="mask0_3_794" style="mask-type:luminance" maskUnits="userSpaceOnUse" x="0" y="0" width="64" height="64">
<path d="M64 32C64 14.3269 49.6731 0 32 0C14.3269 0 0 14.3269 0 32C0 49.6731 14.3269 64 32 64C49.6731 64 64 49.6731 64 32Z" fill="white"/>
</mask>
<g mask="url(#mask0_3_794)">
<path d="M64 32C64 14.3269 49.6731 0 32 0C14.3269 0 0 14.3269 0 32C0 49.6731 14.3269 64 32 64C49.6731 64 64 49.6731 64 32Z" fill="#F0F0F0"/>
<mask id="mask1_3_794" style="mask-type:alpha" maskUnits="userSpaceOnUse" x="0" y="0" width="64" height="64">
<path d="M32 64C49.6731 64 64 49.6731 64 32C64 14.3269 49.6731 0 32 0C14.3269 0 0 14.3269 0 32C0 49.6731 14.3269 64 32 64Z" fill="white"/>
</mask>
<g mask="url(#mask1_3_794)">
<path d="M0 0H64V16H0V0Z" fill="#F0263C"/>
<path d="M0 16H64V32H0V16Z" fill="#231D9A"/>
<path d="M0 32H64V48H0V32Z" fill="#FFD400"/>
<path d="M0 48H64V64H0V48Z" fill="#005B13"/>
</g>
</g>
</g>
<defs>
<clipPath id="clip0_3_794">
<rect width="64" height="64" rx="32" fill="white"/>
</clipPath>
</defs>
</svg>
