<svg width="64" height="64" viewBox="0 0 64 64" fill="none" xmlns="http://www.w3.org/2000/svg">
<g clip-path="url(#clip0_3_862)">
<mask id="mask0_3_862" style="mask-type:luminance" maskUnits="userSpaceOnUse" x="0" y="0" width="64" height="64">
<path d="M64 32C64 14.3269 49.6731 0 32 0C14.3269 0 0 14.3269 0 32C0 49.6731 14.3269 64 32 64C49.6731 64 64 49.6731 64 32Z" fill="white"/>
</mask>
<g mask="url(#mask0_3_862)">
<path d="M64 32C64 14.3269 49.6731 0 32 0C14.3269 0 0 14.3269 0 32C0 49.6731 14.3269 64 32 64C49.6731 64 64 49.6731 64 32Z" fill="white"/>
<mask id="mask1_3_862" style="mask-type:alpha" maskUnits="userSpaceOnUse" x="0" y="0" width="64" height="64">
<path d="M32 64C49.6731 64 64 49.6731 64 32C64 14.3269 49.6731 0 32 0C14.3269 0 0 14.3269 0 32C0 49.6731 14.3269 64 32 64Z" fill="white"/>
</mask>
<g mask="url(#mask1_3_862)">
<path d="M64 0H0V64H64V0Z" fill="white"/>
<path d="M50.5757 2.09627L-2.78027 37.4395L13.4249 61.9037L66.7809 26.5605L50.5757 2.09627Z" fill="#960A3C"/>
<path d="M69.3559 29.0001L16 64.3433L23.7313 76.0149L77.0873 40.6717L69.3559 29.0001Z" fill="#005B13"/>
<path d="M38.3559 -10.9999L-15 24.3433L-7.26866 36.0149L46.0873 0.671685L38.3559 -10.9999Z" fill="#231D9A"/>
</g>
</g>
</g>
<defs>
<clipPath id="clip0_3_862">
<rect width="64" height="64" rx="32" fill="white"/>
</clipPath>
</defs>
</svg>
