<svg width="64" height="64" viewBox="0 0 64 64" fill="none" xmlns="http://www.w3.org/2000/svg">
<g clip-path="url(#clip0_3_492)">
<mask id="mask0_3_492" style="mask-type:luminance" maskUnits="userSpaceOnUse" x="0" y="0" width="64" height="64">
<path d="M64 0H0V64H64V0Z" fill="white"/>
</mask>
<g mask="url(#mask0_3_492)">
<path d="M32 64C49.6731 64 64 49.6731 64 32C64 14.3269 49.6731 0 32 0C14.3269 0 0 14.3269 0 32C0 49.6731 14.3269 64 32 64Z" fill="white"/>
<path d="M16.6875 35.9139L24.9669 26.1743H24.9645L19.9316 17.3438H47.3125L36.7144 46.6453H30.7088L39.4858 22.335H28.1638L30.6815 26.6952L30.669 26.8154L26.798 31.3208H33.132L31.4701 35.9139H16.6875Z" fill="#163300"/>
</g>
</g>
<defs>
<clipPath id="clip0_3_492">
<rect width="64" height="64" rx="32" fill="white"/>
</clipPath>
</defs>
</svg>
