<svg width="64" height="64" viewBox="0 0 64 64" fill="none" xmlns="http://www.w3.org/2000/svg">
<g clip-path="url(#clip0_3_1039)">
<mask id="mask0_3_1039" style="mask-type:luminance" maskUnits="userSpaceOnUse" x="0" y="0" width="64" height="64">
<path d="M64 0H0V64H64V0Z" fill="white"/>
</mask>
<g mask="url(#mask0_3_1039)">
<path d="M42.6666 62.2001V1.80005C55.0666 6.20005 63.9999 18.0667 63.9999 32C63.9999 45.9334 55.0666 57.8001 42.6666 62.2001Z" fill="#F0263C"/>
<path d="M42.6663 1.8C39.333 0.666667 35.733 0 31.9997 0C28.2663 0 24.6663 0.666667 21.333 1.8V62.1333C24.6663 63.3333 28.2663 64 31.9997 64C35.733 64 39.333 63.3333 42.6663 62.2V1.8Z" fill="#FFD400"/>
<path d="M21.333 1.80005V62.1334C8.93297 57.8 -0.000366211 45.9334 -0.000366211 32C-0.000366211 18.0667 8.93297 6.20005 21.333 1.80005Z" fill="#231D9A"/>
</g>
</g>
<defs>
<clipPath id="clip0_3_1039">
<rect width="64" height="64" rx="32" fill="white"/>
</clipPath>
</defs>
</svg>
