<svg width="64" height="64" viewBox="0 0 64 64" fill="none" xmlns="http://www.w3.org/2000/svg">
<g clip-path="url(#clip0_3_528)">
<mask id="mask0_3_528" style="mask-type:luminance" maskUnits="userSpaceOnUse" x="0" y="0" width="64" height="64">
<path d="M64 0H0V64H64V0Z" fill="white"/>
</mask>
<g mask="url(#mask0_3_528)">
<mask id="mask1_3_528" style="mask-type:alpha" maskUnits="userSpaceOnUse" x="0" y="0" width="64" height="64">
<path d="M32 64C49.6731 64 64 49.6731 64 32C64 14.3269 49.6731 0 32 0C14.3269 0 0 14.3269 0 32C0 49.6731 14.3269 64 32 64Z" fill="#231D9A"/>
</mask>
<g mask="url(#mask1_3_528)">
<path d="M64 -0.000488281H0V63.9995H64V-0.000488281Z" fill="#78C9FF"/>
<path d="M35 25.75H57.75C57.75 25.75 57.75 36.125 57.75 41.75C57.75 47.375 46.375 55.25 46.375 55.25C46.375 55.25 35 47.5 35 41.75C35 36 35 25.75 35 25.75Z" fill="white"/>
<path d="M58 24H35V30H58V24Z" fill="#F0263C"/>
<path d="M47.75 30V54.25L46.375 55.25L45 54.25V30H47.75Z" fill="#F0263C"/>
<path d="M57.75 42H35V39.25H57.75V42Z" fill="#F0263C"/>
<path d="M52 48C53.1046 48 54 47.1046 54 46C54 44.8954 53.1046 44 52 44C50.8954 44 50 44.8954 50 46C50 47.1046 50.8954 48 52 48Z" fill="#005B13"/>
<path d="M52 38H54V32H52V38Z" fill="#960A3C"/>
<path d="M43.7257 32.9262L41.9531 32L39.3599 36.9627L41.1325 37.889L43.7257 32.9262Z" fill="#005B13"/>
<path d="M36.2128 32.9262L37.9854 32L40.5786 36.9627L38.806 37.889L36.2128 32.9262Z" fill="#005B13"/>
<path d="M56 33V35L54.5 34H53H51.5L50 35V33L51.5 32H53H54.5L56 33Z" fill="#005B13"/>
<mask id="mask2_3_528" style="mask-type:alpha" maskUnits="userSpaceOnUse" x="0" y="0" width="30" height="32">
<path d="M30 0H0V32H30V0Z" fill="#D9D9D9"/>
</mask>
<g mask="url(#mask2_3_528)">
<path d="M30 0H0V32H30V0Z" fill="#231D9A"/>
<path d="M10.0827 12V11.6667L-4.58398 2C-5.25368 2.82963 -6.07186 3.75802 -6.58398 4.66667L4.74935 12H10.0827Z" fill="#F0263C"/>
<path d="M9.74884 10.133L-2.8849 1.76626C-3.1849 2.09959 -3.4849 2.43293 -3.75156 2.76626L9.78218 11.6997V11.9997H5.34884L-5.25156 4.99959C-5.45156 5.39959 -5.65156 5.79959 -5.85156 6.19959L2.94884 11.9997H0.598842H-2.65155C-2.75155 12.433 -2.85155 12.8663 -2.91821 13.333H11.0822V-0.666992C10.6155 -0.600326 10.1822 -0.500326 9.74882 -0.400326L9.74884 10.133Z" fill="white"/>
<path d="M-2.9177 18.6665C-2.85103 19.1332 -2.75103 19.5665 -2.65103 19.9998H2.94936L-5.98438 25.9331C-5.81771 26.3331 -5.61771 26.7331 -5.38437 27.1331L5.34937 19.9998H9.74936V20.2665L-3.91771 29.3331C-3.65104 29.6998 -3.35104 30.0331 -3.05104 30.3331L9.74936 21.8665L9.74934 32.0664C10.1827 32.1664 10.616 32.2664 11.0827 32.3331V20.9665V19.3665V18.6665H-2.9177Z" fill="white"/>
<path d="M30.4154 13.3333C30.3487 12.8666 30.2487 12.4333 30.1487 11.9999H24.5493L32.082 6.99992C31.882 6.59992 31.7154 6.19992 31.482 5.79992L22.1493 11.9999H17.7493V11.7333L31.0154 2.9999C30.7487 2.63324 30.4487 2.2999 30.1487 1.9999L17.7493 10.1333V-0.333431C17.316 -0.433431 16.8827 -0.533431 16.416 -0.600098V11.0333V12.6333V13.3333H30.4154Z" fill="white"/>
<path d="M16.416 18.6665V32.6664C16.8827 32.5998 17.316 32.4998 17.7493 32.3998L17.7494 21.8665L29.882 29.6664C30.182 29.3331 30.482 28.9998 30.7487 28.6664L17.7494 20.2665V19.9998H22.1494L31.1487 25.8664C31.3487 25.4664 31.5487 25.0664 31.7487 24.6664L24.5494 19.9998H30.1487C30.2487 19.5665 30.3487 19.1332 30.4154 18.6665H16.416Z" fill="white"/>
<path d="M31.749 5.66625C31.3157 4.89958 30.8157 4.13292 30.2823 3.46625L17.749 11.733V11.9996H22.149L31.749 5.66625Z" fill="#F0263C"/>
<path d="M-4.38379 26.4662C-3.95046 27.2328 -3.45046 27.9995 -2.91712 28.6662L9.74956 20.2662V19.9995H5.34955L-4.38379 26.4662Z" fill="#F0263C"/>
<path d="M17.749 19.9995V20.2662L29.949 28.1995C30.5157 27.4995 30.9824 26.7662 31.4157 25.9995L22.149 19.9995H17.749Z" fill="#F0263C"/>
<path d="M30.0826 13.3331H16.416V12.6331V11.0331V-0.3335C15.5493 -0.500167 14.6493 -0.566833 13.7493 -0.566833C12.8493 -0.566833 11.9493 -0.500167 11.0826 -0.3335V13.3331H-2.58405C-2.75072 14.1998 -2.81738 15.0998 -2.81738 15.9998C-2.81738 16.8998 -2.75072 17.7998 -2.58405 18.6665H11.0826V32.3331C11.9493 32.4665 12.8493 32.5665 13.7493 32.5665C14.6493 32.5665 15.5493 32.4998 16.4159 32.3331L16.416 18.6665H30.0826C30.216 17.7998 30.316 16.8998 30.316 15.9998C30.316 15.0998 30.2493 14.1998 30.0826 13.3331Z" fill="#F0263C"/>
</g>
</g>
</g>
</g>
<defs>
<clipPath id="clip0_3_528">
<rect width="64" height="64" rx="32" fill="white"/>
</clipPath>
</defs>
</svg>
