<svg width="64" height="64" viewBox="0 0 64 64" fill="none" xmlns="http://www.w3.org/2000/svg">
<g clip-path="url(#clip0_3_1138)">
<mask id="mask0_3_1138" style="mask-type:luminance" maskUnits="userSpaceOnUse" x="0" y="0" width="64" height="64">
<path d="M64 32C64 14.3269 49.6731 0 32 0C14.3269 0 0 14.3269 0 32C0 49.6731 14.3269 64 32 64C49.6731 64 64 49.6731 64 32Z" fill="white"/>
</mask>
<g mask="url(#mask0_3_1138)">
<path d="M64 32C64 14.3269 49.6731 0 32 0C14.3269 0 0 14.3269 0 32C0 49.6731 14.3269 64 32 64C49.6731 64 64 49.6731 64 32Z" fill="white"/>
<mask id="mask1_3_1138" style="mask-type:alpha" maskUnits="userSpaceOnUse" x="0" y="0" width="64" height="64">
<path d="M32 64C49.6731 64 64 49.6731 64 32C64 14.3269 49.6731 0 32 0C14.3269 0 0 14.3269 0 32C0 49.6731 14.3269 64 32 64Z" fill="#C4C4C4"/>
</mask>
<g mask="url(#mask1_3_1138)">
<path d="M0 0H64V64H0V0Z" fill="#F0263C"/>
<path d="M-6 -6V38H48V-6H-6Z" fill="#231D9A"/>
<path d="M25 26C28.3137 26 31 23.3137 31 20C31 16.6863 28.3137 14 25 14C21.6863 14 19 16.6863 19 20C19 23.3137 21.6863 26 25 26Z" fill="white"/>
<path d="M25.0003 8L27.0788 14.9H22.9219L25.0003 8Z" fill="white"/>
<path d="M25.0006 32L22.9222 25.1H27.0791L25.0006 32Z" fill="white"/>
<path d="M33.4853 11.5146L30.076 17.8633L27.1366 14.924L33.4853 11.5146Z" fill="white"/>
<path d="M16.5146 28.4854L19.9239 22.1367L22.8633 25.076L16.5146 28.4854Z" fill="white"/>
<path d="M37 20.0003L30.1 22.0788V17.9219L37 20.0003Z" fill="white"/>
<path d="M13 19.9997L19.9 17.9212V22.0781L13 19.9997Z" fill="white"/>
<path d="M33.4854 28.4858L27.1367 25.0765L30.076 22.1371L33.4854 28.4858Z" fill="white"/>
<path d="M16.5146 11.5142L22.8633 14.9235L19.924 17.8629L16.5146 11.5142Z" fill="white"/>
</g>
</g>
</g>
<defs>
<clipPath id="clip0_3_1138">
<rect width="64" height="64" rx="32" fill="white"/>
</clipPath>
</defs>
</svg>
