<svg width="24" height="24" viewBox="0 0 24 24" fill="none" xmlns="http://www.w3.org/2000/svg">
<path fill-rule="evenodd" clip-rule="evenodd" d="M20.427 6C20.96 6 21.392 6.432 21.392 6.964V12H19.677V8.927L12.572 16.032C12.4921 16.112 12.3971 16.1755 12.2927 16.2188C12.1882 16.2621 12.0762 16.2844 11.963 16.2844C11.8499 16.2844 11.7379 16.2621 11.6334 16.2188C11.5289 16.1755 11.434 16.112 11.354 16.032L8.53405 13.212L3.78404 17.964L2.57104 16.752L7.92604 11.398C8.006 11.318 8.10094 11.2545 8.20544 11.2112C8.30993 11.1679 8.42193 11.1456 8.53504 11.1456C8.64816 11.1456 8.76016 11.1679 8.86465 11.2112C8.96915 11.2545 9.06409 11.318 9.14404 11.398L11.964 14.217L18.466 7.714H15.392V6H20.427ZM4.25004 8.572H12.821V6.857H4.25004V8.572Z" fill="black"/>
</svg>
