<svg width="24" height="24" viewBox="0 0 24 24" fill="none" xmlns="http://www.w3.org/2000/svg">
<path fill-rule="evenodd" clip-rule="evenodd" d="M2.57599 4C2.46284 3.99987 2.35077 4.02204 2.24619 4.06525C2.14161 4.10846 2.04658 4.17186 1.96652 4.25183C1.88647 4.33179 1.82296 4.42675 1.77962 4.53128C1.73629 4.63581 1.71399 4.74785 1.71399 4.861V15.996C1.71399 16.471 2.09999 16.857 2.57599 16.857H7.28599V15.143H5.14299C5.14299 14.6884 4.96241 14.2525 4.64097 13.931C4.31953 13.6096 3.88357 13.429 3.42899 13.429V7.429C3.65416 7.429 3.87712 7.38463 4.08514 7.29843C4.29316 7.21224 4.48215 7.08589 4.64132 6.92663C4.8005 6.76736 4.92673 6.57829 5.01281 6.37023C5.09888 6.16216 5.14312 5.93917 5.14299 5.714H18.857C18.857 6.16885 19.0377 6.60506 19.3593 6.92669C19.6809 7.24831 20.1171 7.429 20.572 7.429V5.714V15.143V13.429C20.3468 13.4287 20.1237 13.4729 19.9156 13.5589C19.7075 13.6449 19.5184 13.7712 19.3591 13.9304C19.1998 14.0896 19.0734 14.2786 18.9873 14.4867C18.9011 14.6948 18.8569 14.9178 18.857 15.143H16.714V16.857H21.424C21.5371 16.8571 21.6492 16.835 21.7538 16.7917C21.8584 16.7485 21.9534 16.6851 22.0335 16.6052C22.1135 16.5252 22.177 16.4302 22.2204 16.3257C22.2637 16.2212 22.286 16.1092 22.286 15.996V4.86C22.2859 4.74693 22.2635 4.635 22.2201 4.53059C22.1767 4.42618 22.1131 4.33133 22.0331 4.25147C21.9531 4.17162 21.8581 4.10831 21.7536 4.06516C21.649 4.02201 21.5371 3.99987 21.424 4H2.57599ZM10.286 10.429C10.286 9.97442 10.4666 9.53846 10.788 9.21702C11.1094 8.89558 11.5454 8.715 12 8.715C12.4546 8.715 12.8905 8.89558 13.212 9.21702C13.5334 9.53846 13.714 9.97442 13.714 10.429C13.714 10.8836 13.5334 11.3195 13.212 11.641C12.8905 11.9624 12.4546 12.143 12 12.143C11.5454 12.143 11.1094 11.9624 10.788 11.641C10.4666 11.3195 10.286 10.8836 10.286 10.429ZM12 7C11.5448 6.99223 11.0927 7.07516 10.6699 7.24397C10.2471 7.41278 9.86219 7.66408 9.53756 7.98322C9.21292 8.30235 8.95509 8.68294 8.77908 9.10277C8.60308 9.5226 8.51243 9.97327 8.51243 10.4285C8.51243 10.8837 8.60308 11.3344 8.77908 11.7542C8.95509 12.1741 9.21292 12.5546 9.53756 12.8738C9.86219 13.1929 10.2471 13.4442 10.6699 13.613C11.0927 13.7818 11.5448 13.8648 12 13.857C12.8991 13.8416 13.7563 13.4737 14.3867 12.8324C15.0172 12.1911 15.3704 11.3278 15.3704 10.4285C15.3704 9.52921 15.0172 8.66592 14.3867 8.02462C13.7563 7.38333 12.8991 7.01536 12 7ZM11.143 19.288L9.39199 17.537L8.17999 18.749L11.391 21.96C11.5526 22.1213 11.7716 22.2119 12 22.2119C12.2283 22.2119 12.4474 22.1213 12.609 21.96L15.82 18.749L14.608 17.537L12.858 19.287V15.143H11.143V19.288Z" fill="black"/>
</svg>
