<svg width="24" height="24" viewBox="0 0 24 24" fill="none" xmlns="http://www.w3.org/2000/svg">
<path fill-rule="evenodd" clip-rule="evenodd" d="M12.905 2.65801C12.7002 2.52805 12.4632 2.45781 12.2207 2.45516C11.9781 2.45251 11.7396 2.51756 11.532 2.64301L2.42002 8.15601C2.25767 8.25441 2.13196 8.40322 2.06207 8.57974C1.99218 8.75626 1.98195 8.95079 2.03294 9.13366C2.08393 9.31653 2.19333 9.47771 2.34447 9.5926C2.4956 9.70749 2.68017 9.7698 2.87002 9.77001H4.17402V19.772H2.43402V21.511H21.565V19.771H19.826V9.77101H21.13C21.3186 9.77153 21.5023 9.70968 21.6532 9.59665C21.8042 9.48363 21.9143 9.32455 21.9669 9.14345C22.0195 8.96235 22.0118 8.76904 21.9449 8.59272C21.878 8.41639 21.7555 8.26662 21.596 8.16601L12.906 2.65801H12.905ZM18.135 8.03101L12.202 4.27101L5.98602 8.03101H18.135ZM12.869 9.77101H18.087V19.771H12.87L12.869 9.77101ZM5.91302 9.77101V19.771H11.13V9.77101H5.91302Z" fill="black"/>
</svg>
