<svg width="24" height="24" viewBox="0 0 24 24" fill="none" xmlns="http://www.w3.org/2000/svg">
<path fill-rule="evenodd" clip-rule="evenodd" d="M2.57599 5.57001C2.46275 5.56988 2.3506 5.59208 2.24596 5.63536C2.14132 5.67863 2.04624 5.74212 1.96617 5.82219C1.8861 5.90226 1.82261 5.99734 1.77934 6.10198C1.73606 6.20662 1.71386 6.31877 1.71399 6.43201V17.566C1.71399 18.042 2.09999 18.427 2.57599 18.427H21.424C21.5371 18.4271 21.6492 18.405 21.7538 18.3618C21.8584 18.3185 21.9534 18.2551 22.0335 18.1752C22.1135 18.0952 22.177 18.0003 22.2204 17.8957C22.2637 17.7912 22.286 17.6792 22.286 17.566V6.43201C22.2861 6.31877 22.2639 6.20662 22.2206 6.10198C22.1774 5.99734 22.1139 5.90226 22.0338 5.82219C21.9537 5.74212 21.8587 5.67863 21.754 5.63536C21.6494 5.59208 21.5372 5.56988 21.424 5.57001H2.57599ZM3.42899 16.713V7.28501V8.99801C3.8834 8.99801 4.31921 8.81756 4.64062 8.49634C4.96203 8.17512 5.14272 7.73942 5.14299 7.28501H18.857C18.857 7.51005 18.9013 7.73288 18.9875 7.94078C19.0736 8.14867 19.1999 8.33756 19.3591 8.49664C19.5182 8.65572 19.7072 8.78187 19.9151 8.8679C20.1231 8.95393 20.346 8.99814 20.571 8.99801V14.998C20.1165 14.9983 19.6807 15.1789 19.3593 15.5003C19.0379 15.8217 18.8573 16.2575 18.857 16.712H20.571L3.42999 16.713H3.42899ZM4.08499 15.128C3.87697 15.042 3.65407 14.9979 3.42899 14.998V16.713L5.14299 16.712C5.14289 16.3731 5.04233 16.0418 4.85402 15.7601C4.6657 15.4783 4.39808 15.2577 4.08499 15.128ZM10.285 11.998C10.285 11.5432 10.4657 11.1069 10.7873 10.7853C11.1089 10.4637 11.5451 10.283 12 10.283C12.4548 10.283 12.8911 10.4637 13.2127 10.7853C13.5343 11.1069 13.715 11.5432 13.715 11.998C13.715 12.4529 13.5343 12.8891 13.2127 13.2107C12.8911 13.5323 12.4548 13.713 12 13.713C11.5451 13.713 11.1089 13.5323 10.7873 13.2107C10.4657 12.8891 10.285 12.4529 10.285 11.998ZM12 8.57001C11.5448 8.56223 11.0927 8.64517 10.6699 8.81398C10.2471 8.98279 9.86219 9.23409 9.53756 9.55322C9.21292 9.87236 8.95509 10.2529 8.77908 10.6728C8.60308 11.0926 8.51243 11.5433 8.51243 11.9985C8.51243 12.4537 8.60308 12.9044 8.77908 13.3242C8.95509 13.7441 9.21292 14.1247 9.53756 14.4438C9.86219 14.7629 10.2471 15.0142 10.6699 15.183C11.0927 15.3518 11.5448 15.4348 12 15.427C12.8991 15.4117 13.7563 15.0437 14.3867 14.4024C15.0172 13.7611 15.3704 12.8978 15.3704 11.9985C15.3704 11.0992 15.0172 10.2359 14.3867 9.59463C13.7563 8.95333 12.8991 8.58536 12 8.57001Z" fill="black"/>
</svg>
