<svg width="24" height="24" viewBox="0 0 24 24" fill="none" xmlns="http://www.w3.org/2000/svg">
<path fill-rule="evenodd" clip-rule="evenodd" d="M4.71399 2.57401C4.71399 2.09801 5.09999 1.71301 5.57599 1.71301H19.28C19.756 1.71301 20.142 2.09901 20.142 2.57401V21.423C20.142 21.5362 20.1197 21.6482 20.0764 21.7527C20.033 21.8573 19.9695 21.9522 19.8895 22.0322C19.8094 22.1122 19.7144 22.1756 19.6098 22.2188C19.5052 22.262 19.3931 22.2841 19.28 22.284H5.57599C5.46284 22.2841 5.35077 22.262 5.24619 22.2188C5.14161 22.1756 5.04658 22.1122 4.96652 22.0322C4.88647 21.9522 4.82296 21.8573 4.77962 21.7527C4.73629 21.6482 4.71399 21.5362 4.71399 21.423V2.57401ZM6.42899 3.42701V20.57H18.429V3.42701H6.42899ZM8.56999 7.28401H16.285V5.57001H8.56999V7.28401ZM16.285 10.713H8.56999V8.99901H16.285V10.713ZM16.285 14.142H8.56999V12.427H16.285V14.142ZM13.713 17.57H16.285V15.856H13.713V17.57Z" fill="black"/>
</svg>
