<svg width="24" height="24" viewBox="0 0 24 24" fill="none" xmlns="http://www.w3.org/2000/svg">
<path d="M21.428 6.429H18V3.857C17.9992 3.62995 17.9087 3.41243 17.7481 3.25188C17.5876 3.09134 17.37 3.00079 17.143 3H6.85699C6.62994 3.00079 6.41242 3.09134 6.25187 3.25188C6.09132 3.41243 6.00078 3.62995 5.99999 3.857V6.43H2.57099C2.34394 6.43079 2.12642 6.52134 1.96587 6.68188C1.80532 6.84243 1.71478 7.05995 1.71399 7.287V20.144C1.71478 20.371 1.80532 20.5886 1.96587 20.7491C2.12642 20.9097 2.34394 21.0002 2.57099 21.001H21.428C21.6552 21.0005 21.873 20.91 22.0338 20.7495C22.1945 20.5889 22.2852 20.3712 22.286 20.144V7.286C22.2852 7.05878 22.1945 6.84111 22.0338 6.68053C21.873 6.51996 21.6552 6.42953 21.428 6.429ZM7.71399 4.714H16.286V6.43H7.71399V4.714ZM16.286 8.143V19.286H7.71399V8.143H16.286ZM3.42899 8.143H5.99999V19.286H3.42899V8.143ZM20.57 19.286H18V8.143H20.571L20.57 19.286Z" fill="black"/>
</svg>
