<svg width="24" height="24" viewBox="0 0 24 24" fill="none" xmlns="http://www.w3.org/2000/svg">
<path fill-rule="evenodd" clip-rule="evenodd" d="M16.286 6.85601V8.57001H18V6.85601H20.571V18.856H3.42999V6.85601H5.99999V8.57001H7.71399V6.85601H16.286ZM2.57599 5.14201H5.99999V2.57001H7.71399V5.14201H16.286V2.57001H18V5.14201H21.424C21.9 5.14201 22.286 5.52801 22.286 6.00301V19.71C22.286 19.8232 22.2637 19.9352 22.2204 20.0397C22.177 20.1443 22.1135 20.2392 22.0335 20.3192C21.9534 20.3991 21.8584 20.4625 21.7538 20.5058C21.6492 20.549 21.5371 20.5711 21.424 20.571H2.57599C2.46284 20.5711 2.35077 20.549 2.24619 20.5058C2.14161 20.4625 2.04658 20.3991 1.96652 20.3192C1.88647 20.2392 1.82296 20.1443 1.77962 20.0397C1.73629 19.9352 1.71399 19.8232 1.71399 19.71V6.00301C1.71399 5.52701 2.09999 5.14201 2.57599 5.14201ZM17.143 16.713C17.3148 16.7178 17.4859 16.6881 17.646 16.6256C17.8062 16.5632 17.9522 16.4693 18.0754 16.3494C18.1987 16.2296 18.2966 16.0863 18.3635 15.9279C18.4304 15.7696 18.4648 15.5994 18.4648 15.4275C18.4648 15.2556 18.4304 15.0855 18.3635 14.9271C18.2966 14.7688 18.1987 14.6254 18.0754 14.5056C17.9522 14.3857 17.8062 14.2918 17.646 14.2294C17.4859 14.1669 17.3148 14.1372 17.143 14.142C16.8083 14.1513 16.4904 14.2909 16.2569 14.5309C16.0235 14.771 15.8928 15.0926 15.8928 15.4275C15.8928 15.7624 16.0235 16.084 16.2569 16.3241C16.4904 16.5641 16.8083 16.7037 17.143 16.713Z" fill="black"/>
</svg>
