<svg width="24" height="24" viewBox="0 0 24 24" fill="none" xmlns="http://www.w3.org/2000/svg">
<path d="M18.814 8.87202C18.557 5.35802 15.6 2.57202 12 2.57202C8.40002 2.57202 5.44302 5.35802 5.18602 8.87202C3.68602 9.21502 2.57202 10.501 2.57202 12.001C2.57202 13.501 3.68602 14.787 5.18602 15.129C5.44302 18.644 8.40002 21.429 12 21.429H14.572V19.715H12C9.17202 19.715 6.85702 17.401 6.85702 14.572V9.43002C6.85702 6.60202 9.17202 4.28802 12 4.28802C14.829 4.28802 17.143 6.60202 17.143 9.43002V14.359C17.1438 14.5861 17.2344 14.8036 17.3949 14.9641C17.5555 15.1247 17.773 15.2152 18 15.216C19.886 15.216 21.429 13.759 21.429 12.002C21.429 10.502 20.315 9.21602 18.815 8.87302L18.814 8.87202ZM4.28602 12.001C4.28602 11.444 4.62902 10.972 5.14302 10.715V13.287C4.62902 13.029 4.28602 12.558 4.28602 12.001ZM18.857 13.287V10.715C19.372 10.972 19.715 11.444 19.715 12.001C19.715 12.558 19.372 13.029 18.857 13.287Z" fill="black"/>
</svg>
