<svg width="24" height="24" viewBox="0 0 24 24" fill="none" xmlns="http://www.w3.org/2000/svg">
<path fill-rule="evenodd" clip-rule="evenodd" d="M2.57599 4.71399C2.46275 4.71386 2.3506 4.73606 2.24596 4.77934C2.14132 4.82261 2.04624 4.8861 1.96617 4.96617C1.8861 5.04624 1.82261 5.14132 1.77934 5.24596C1.73606 5.3506 1.71386 5.46275 1.71399 5.57599V11.999C1.71399 12.236 1.91399 12.423 2.12899 12.525C2.26899 12.591 2.41399 12.697 2.54599 12.847C2.67799 12.998 2.79299 13.19 2.87399 13.415C2.95599 13.64 2.99999 13.888 2.99999 14.143C2.99999 14.397 2.95599 14.645 2.87399 14.871C2.80061 15.0786 2.6894 15.2709 2.54599 15.438C2.41399 15.588 2.26999 15.694 2.12899 15.761C1.92699 15.857 1.73699 16.029 1.71599 16.247H1.71399V18.853C1.71399 19.328 2.09999 19.714 2.57599 19.714H21.424C21.5371 19.7141 21.6492 19.6919 21.7538 19.6487C21.8584 19.6055 21.9534 19.5421 22.0335 19.4622C22.1135 19.3822 22.177 19.2872 22.2204 19.1827C22.2637 19.0782 22.286 18.9661 22.286 18.853V5.57599C22.2861 5.46275 22.2639 5.3506 22.2206 5.24596C22.1774 5.14132 22.1139 5.04624 22.0338 4.96617C21.9537 4.8861 21.8587 4.82261 21.754 4.77934C21.6494 4.73606 21.5372 4.71386 21.424 4.71399H2.57599ZM3.42899 16.956V18H20.57V6.42899H3.42999V11.329C3.57499 11.445 3.71099 11.575 3.83699 11.719C4.11499 12.037 4.33699 12.415 4.48699 12.831C4.63699 13.247 4.71499 13.693 4.71499 14.143C4.71499 14.593 4.63799 15.039 4.48699 15.455C4.33699 15.871 4.11499 16.249 3.83699 16.567C3.7133 16.7089 3.57709 16.8395 3.42999 16.957L3.42899 16.956ZM18.429 15.857H15.857V14.143H18.429V15.857Z" fill="black"/>
</svg>
