<svg width="24" height="24" viewBox="0 0 24 24" fill="none" xmlns="http://www.w3.org/2000/svg">
<path fill-rule="evenodd" clip-rule="evenodd" d="M1.71399 11.999C1.71399 6.34 6.34299 1.713 12 1.713C17.657 1.713 22.286 6.34 22.286 11.999C22.286 17.656 17.657 22.284 12 22.284C6.34299 22.284 1.71399 17.656 1.71399 12V11.999ZM3.42899 11.999C3.42899 16.713 7.28599 20.57 12 20.57C16.714 20.57 20.572 16.713 20.572 11.999C20.572 7.284 16.714 3.427 12 3.427C7.28599 3.427 3.42999 7.284 3.42999 12L3.42899 11.999ZM11.143 5.141H12.857V11.655L16.029 14.826L14.829 16.026L11.4 12.598C11.3196 12.52 11.2554 12.4268 11.2113 12.3238C11.1672 12.2208 11.144 12.11 11.143 11.998V5.141Z" fill="black"/>
</svg>
