<svg width="24" height="24" viewBox="0 0 24 24" fill="none" xmlns="http://www.w3.org/2000/svg">
<path fill-rule="evenodd" clip-rule="evenodd" d="M1.71399 12C1.71399 6.344 6.34299 1.716 12 1.716C17.657 1.716 22.286 6.343 22.286 12C22.286 17.657 17.657 22.285 12 22.285C6.34299 22.285 1.71399 17.658 1.71399 12.001V12ZM3.42899 12C3.42899 16.715 7.28599 20.572 12 20.572C16.714 20.572 20.572 16.715 20.572 12.001C20.572 7.286 16.714 3.429 12 3.429C7.28599 3.429 3.42899 7.286 3.42899 12.001V12ZM12 10.8L16.243 6.557L17.443 7.757L13.2 11.999L17.443 16.242L16.243 17.442L12 13.2L7.75699 17.442L6.55699 16.242L10.8 12L6.55699 7.757L7.75699 6.557L12 10.799V10.8Z" fill="black"/>
</svg>
