<svg width="24" height="24" viewBox="0 0 24 24" fill="none" xmlns="http://www.w3.org/2000/svg">
<path d="M22.029 11.572L16.029 5.57199L14.829 6.77199L19.372 11.315H4.62904L9.17204 6.77199L7.97204 5.57199L1.97204 11.572C1.89084 11.6494 1.8262 11.7425 1.78203 11.8456C1.73786 11.9488 1.71509 12.0598 1.71509 12.172C1.71509 12.2842 1.73786 12.3952 1.78203 12.4983C1.8262 12.6015 1.89084 12.6946 1.97204 12.772L7.97204 18.772L9.17204 17.572L4.62904 13.029H19.329L14.829 17.572L16.029 18.772L22.029 12.772C22.1102 12.6946 22.1749 12.6015 22.219 12.4983C22.2632 12.3952 22.286 12.2842 22.286 12.172C22.286 12.0598 22.2632 11.9488 22.219 11.8456C22.1749 11.7425 22.1102 11.6494 22.029 11.572Z" fill="black"/>
</svg>
