<svg width="24" height="24" viewBox="0 0 24 24" fill="none" xmlns="http://www.w3.org/2000/svg">
<path fill-rule="evenodd" clip-rule="evenodd" d="M17.657 7.88501H8.78596C7.85672 7.88676 6.96299 8.24218 6.28635 8.87908C5.6097 9.51598 5.20089 10.3866 5.14296 11.314H3.42896C3.55696 8.44301 5.91396 6.17101 8.78596 6.17101H17.657L14.828 3.34301L16.028 2.14301L20.314 6.42801C20.3952 6.50542 20.4598 6.59852 20.504 6.70165C20.5481 6.80479 20.5709 6.91581 20.5709 7.02801C20.5709 7.1402 20.5481 7.25122 20.504 7.35436C20.4598 7.45749 20.3952 7.55059 20.314 7.62801L16.029 11.914L14.829 10.714L17.657 7.88501ZM6.34296 16.456H15.214C17.143 16.456 18.728 14.956 18.857 13.028H20.571C20.443 15.899 18.086 18.171 15.214 18.171H6.34296L9.17095 20.999L7.97096 22.199L3.68596 17.913C3.60475 17.8356 3.54011 17.7425 3.49595 17.6394C3.45178 17.5362 3.429 17.4252 3.429 17.313C3.429 17.2008 3.45178 17.0898 3.49595 16.9867C3.54011 16.8835 3.60475 16.7904 3.68596 16.713L7.97096 12.428L9.17095 13.628L6.34296 16.456Z" fill="black"/>
</svg>
