<svg width="24" height="24" viewBox="0 0 24 24" fill="none" xmlns="http://www.w3.org/2000/svg">
<path fill-rule="evenodd" clip-rule="evenodd" d="M15.6979 3.859L10.1269 9.43H13.0589L19.8429 2.646L21.0549 3.859L15.4839 9.43H18.3429C18.8129 9.43 19.1999 9.81 19.1999 10.287V11.607C19.2 12.995 18.7911 14.3523 18.0242 15.5093C17.2573 16.6662 16.1664 17.5715 14.8879 18.112L15.5229 20.332C15.5597 20.4603 15.5661 20.5953 15.5417 20.7265C15.5173 20.8576 15.4627 20.9813 15.3823 21.0878C15.302 21.1943 15.1979 21.2806 15.0785 21.34C14.959 21.3994 14.8274 21.4302 14.6939 21.43H7.41994C7.28661 21.43 7.15509 21.3991 7.03575 21.3397C6.91641 21.2802 6.81251 21.1939 6.73223 21.0874C6.65196 20.9809 6.5975 20.8573 6.57315 20.7262C6.54881 20.5951 6.55524 20.4602 6.59194 20.332L7.22594 18.112C5.94747 17.5715 4.85663 16.6662 4.08972 15.5093C3.32281 14.3523 2.91385 12.995 2.91394 11.607V10.287C2.91394 9.816 3.29594 9.43 3.77094 9.43H7.70194L14.4859 2.646L15.6979 3.859ZM17.4859 11.144H4.62894V11.607C4.62878 12.7691 5.0072 13.8996 5.70692 14.8274C6.40665 15.7552 7.38958 16.4297 8.50694 16.749C8.95994 16.879 9.22694 17.351 9.09594 17.809L8.55094 19.716H13.5639L13.0189 17.808C12.9879 17.6998 12.9785 17.5865 12.9913 17.4747C13.0041 17.3629 13.0388 17.2546 13.0934 17.1562C13.148 17.0578 13.2214 16.971 13.3095 16.901C13.3977 16.831 13.4987 16.779 13.6069 16.748C14.7242 16.429 15.7071 15.7548 16.407 14.8274C17.1068 13.9 17.4856 12.7699 17.4859 11.608V11.144Z" fill="black"/>
</svg>
