<svg width="24" height="24" viewBox="0 0 24 24" fill="none" xmlns="http://www.w3.org/2000/svg">
<path d="M21.429 4.285H2.57199C2.34477 4.28553 2.12699 4.37596 1.96623 4.53654C1.80546 4.69711 1.71478 4.91478 1.71399 5.142V18.857C1.71478 19.0841 1.80532 19.3016 1.96587 19.4621C2.12642 19.6227 2.34394 19.7132 2.57099 19.714H21.43C21.657 19.7132 21.8746 19.6227 22.0351 19.4621C22.1957 19.3016 22.2862 19.0841 22.287 18.857V5.142C22.2862 4.91496 22.1957 4.69743 22.0351 4.53689C21.8746 4.37634 21.656 4.28579 21.429 4.285ZM18.772 6L12 10.928L5.22999 5.999H18.773L18.772 6ZM3.42799 18V6.814L11.485 12.685C11.632 12.7987 11.8132 12.8593 11.999 12.857C12.1848 12.8593 12.366 12.7987 12.513 12.685L20.571 6.814V17.999L3.42799 18Z" fill="black"/>
</svg>
