<svg width="24" height="24" viewBox="0 0 24 24" fill="none" xmlns="http://www.w3.org/2000/svg">
<path fill-rule="evenodd" clip-rule="evenodd" d="M2.99999 5.14301C2.28999 5.14301 1.71399 5.71801 1.71399 6.42801V8.57C1.71399 9.044 2.12199 9.412 2.53399 9.64601C3.17199 10.009 3.64299 10.817 3.64299 11.999C3.64299 13.18 3.17199 13.989 2.53299 14.352C2.12199 14.586 1.71399 14.954 1.71399 15.427V17.571C1.71399 18.281 2.28999 18.857 2.99999 18.857H21C21.709 18.857 22.286 18.283 22.286 17.572V15.428C22.286 14.954 21.878 14.586 21.466 14.352C20.828 13.988 20.357 13.18 20.357 11.999C20.357 10.817 20.828 10.009 21.467 9.64601C21.878 9.412 22.286 9.044 22.286 8.57V6.42801C22.286 5.71801 21.71 5.14301 21 5.14301H2.99999ZM18.643 11.999C18.643 13.582 19.332 15.099 20.571 15.83V17.143H3.42999V15.83C4.66999 15.1 5.35799 13.582 5.35799 11.999C5.35799 10.416 4.66899 8.89901 3.42999 8.16801V6.85701H20.57V8.16701C19.33 8.899 18.643 10.416 18.643 11.999ZM12.857 9.42801H11.143V14.57H12.857V9.42801Z" fill="black"/>
</svg>
