<svg width="16" height="16" viewBox="0 0 16 16" fill="none" xmlns="http://www.w3.org/2000/svg">
<path fill-rule="evenodd" clip-rule="evenodd" d="M1.71392 8.85797L2.18926 9.1753L2.19192 9.1713C2.21895 9.13097 2.24742 9.09161 2.27726 9.0533C2.34059 8.9693 2.43726 8.8453 2.56659 8.6953C2.91445 8.29257 3.2985 7.92258 3.71392 7.58997C4.72126 6.78397 6.17059 6.00064 7.99992 6.00064C9.82926 6.00064 11.2786 6.78397 12.2859 7.58997C12.7011 7.92261 13.0849 8.2926 13.4326 8.6953C13.5646 8.8484 13.6898 9.00722 13.8079 9.1713L13.8106 9.1753L14.2859 8.85797C14.7613 8.5413 14.7613 8.54064 14.7606 8.54064L14.7599 8.5393L14.7573 8.5353L14.7506 8.5253C14.7143 8.47181 14.6765 8.41934 14.6373 8.36797C14.5593 8.26464 14.4466 8.1213 14.2993 7.9493C13.9052 7.49307 13.47 7.07398 12.9993 6.6973C11.8653 5.7893 10.1713 4.85797 7.99992 4.85797C5.82926 4.85797 4.13526 5.7893 2.99992 6.69797C2.52946 7.07448 2.09453 7.49334 1.70059 7.9493C1.5415 8.13437 1.3909 8.32657 1.24926 8.5253L1.24259 8.5353L1.23992 8.53864V8.53997L1.23926 8.54064L1.71392 8.85797ZM7.99992 10.572C8.22501 10.572 8.44789 10.5276 8.65584 10.4415C8.8638 10.3554 9.05275 10.2291 9.21191 10.07C9.37107 9.91079 9.49732 9.72184 9.58345 9.51389C9.66959 9.30594 9.71392 9.08306 9.71392 8.85797C9.71392 8.63289 9.66959 8.41 9.58345 8.20205C9.49732 7.9941 9.37107 7.80515 9.21191 7.64599C9.05275 7.48683 8.8638 7.36058 8.65584 7.27444C8.44789 7.18831 8.22501 7.14397 7.99992 7.14397C7.54526 7.14397 7.10921 7.32459 6.78771 7.64609C6.46621 7.96759 6.28559 8.40364 6.28559 8.8583C6.28559 9.31297 6.46621 9.74902 6.78771 10.0705C7.10921 10.392 7.54526 10.5726 7.99992 10.5726V10.572Z" fill="black"/>
</svg>
