<svg width="24" height="24" viewBox="0 0 24 24" fill="none" xmlns="http://www.w3.org/2000/svg">
<path d="M19.2649 7.21598C18.1509 6.35898 16.1799 5.62998 12.8369 6.57298C12.7079 4.81598 12.0649 3.48698 10.9939 2.67298C9.15094 1.25898 6.75094 1.81598 6.66494 1.85898C6.4809 1.90079 6.31672 2.00436 6.19973 2.15246C6.08274 2.30056 6.02 2.48426 6.02194 2.67298C6.02194 3.78698 6.53694 5.11598 7.47994 6.18698C6.27994 6.31598 5.42194 6.74398 4.77994 7.21598C3.23694 8.37298 2.42194 10.473 2.59394 12.916C2.80794 15.701 4.09394 19.259 6.57994 20.93C8.12194 22.002 9.96494 22.216 11.9799 21.659C12.6476 21.8574 13.3404 21.9585 14.0369 21.959C15.2302 21.9673 16.397 21.608 17.3789 20.93C19.8649 19.259 21.1509 15.701 21.3649 12.916C21.6219 10.473 20.8079 8.37298 19.2649 7.21598ZM9.96494 3.99998C10.6079 4.51498 10.9939 5.32898 11.1219 6.44298C9.19394 6.05798 8.20794 4.51499 7.86494 3.39998C8.46494 3.39998 9.32194 3.48598 9.96494 3.99998ZM19.7369 12.786C19.5649 15.1 18.4509 18.186 16.4799 19.558C15.3219 20.329 13.9079 20.5 12.3219 19.986C12.1079 19.901 11.8939 19.943 11.6799 20.029C10.0939 20.5 8.72194 20.329 7.60794 19.558C5.59394 18.186 4.47994 15.1 4.30794 12.786C4.17994 10.9 4.73694 9.39999 5.80794 8.58599C7.05094 7.64299 9.06494 7.59998 11.5939 8.49998C11.7219 8.54298 11.8509 8.58599 11.9799 8.58599H12.0219C12.1509 8.58599 12.2799 8.54298 12.4079 8.49998C14.9369 7.59998 16.9509 7.64299 18.1939 8.58599C19.3079 9.39999 19.8649 10.943 19.7369 12.786Z" fill="black"/>
</svg>
