<svg width="16" height="16" viewBox="0 0 16 16" fill="none" xmlns="http://www.w3.org/2000/svg">
<path fill-rule="evenodd" clip-rule="evenodd" d="M7.99991 1.14465C4.22858 1.14465 1.14258 4.22999 1.14258 8.00132C1.14258 11.7733 4.22924 14.8587 7.99991 14.8587C11.7712 14.8587 14.8572 11.7733 14.8572 8.00132C14.8572 4.22999 11.7712 1.14465 7.99991 1.14465ZM7.99991 13.716C4.85724 13.716 2.28591 11.1447 2.28591 8.00132C2.28591 4.85865 4.85724 2.28799 7.99991 2.28799C11.1432 2.28799 13.7146 4.85865 13.7146 8.00132C13.7146 11.1447 11.1432 13.716 7.99991 13.716ZM7.99991 12.0033C8.11447 12.0065 8.2285 11.9867 8.33527 11.9451C8.44204 11.9035 8.53938 11.8408 8.62153 11.7609C8.70369 11.681 8.76899 11.5855 8.81358 11.4799C8.85817 11.3744 8.88115 11.2609 8.88115 11.1463C8.88115 11.0317 8.85817 10.9183 8.81358 10.8127C8.76899 10.7072 8.70369 10.6116 8.62153 10.5317C8.53938 10.4518 8.44204 10.3892 8.33527 10.3476C8.2285 10.3059 8.11447 10.2861 7.99991 10.2893C7.77676 10.2955 7.56484 10.3886 7.4092 10.5486C7.25356 10.7086 7.16648 10.9231 7.16648 11.1463C7.16648 11.3696 7.25356 11.584 7.4092 11.744C7.56484 11.9041 7.77676 11.9971 7.99991 12.0033ZM5.79991 6.85999C5.79991 5.54532 6.71458 4.57399 7.99991 4.57399C9.28591 4.57399 10.1999 5.48865 10.1999 6.77399C10.1999 7.48865 9.68591 8.03132 9.22858 8.48865C8.91458 8.80265 8.57125 9.14599 8.57125 9.40265H7.42858C7.42858 8.68865 7.94325 8.14599 8.39991 7.68865C8.71458 7.37399 9.05725 7.03132 9.05725 6.77399C9.05725 6.11732 8.65725 5.71732 7.99991 5.71732C7.37124 5.71732 6.94324 6.17399 6.94324 6.85999H5.79991Z" fill="black"/>
</svg>
