<svg width="24" height="24" viewBox="0 0 24 24" fill="none" xmlns="http://www.w3.org/2000/svg">
<path d="M22.9711 13.287L12.5141 2.82897C12.4366 2.74777 12.3435 2.68313 12.2404 2.63896C12.1373 2.59479 12.0262 2.57202 11.9141 2.57202C11.8019 2.57202 11.6908 2.59479 11.5877 2.63896C11.4846 2.68313 11.3915 2.74777 11.3141 2.82897L0.857056 13.287L2.05706 14.487L4.20006 12.344V20.572C4.20085 20.799 4.29139 21.0165 4.45194 21.1771C4.61249 21.3376 4.83001 21.4282 5.05706 21.429H18.7721C18.9991 21.4282 19.2166 21.3376 19.3772 21.1771C19.5377 21.0165 19.6283 20.799 19.6291 20.572V12.344L21.7711 14.487L22.9711 13.287ZM17.9141 19.715H5.91406V10.63L11.9141 4.62997L17.9141 10.63V19.715Z" fill="black"/>
</svg>
