<svg width="24" height="24" viewBox="0 0 24 24" fill="none" xmlns="http://www.w3.org/2000/svg">
<path fill-rule="evenodd" clip-rule="evenodd" d="M18.857 3.00401C18.8571 2.87803 18.8295 2.75356 18.7762 2.6394C18.7229 2.52523 18.6453 2.42415 18.5487 2.34328C18.4521 2.26241 18.3389 2.20373 18.2171 2.17137C18.0954 2.13901 17.968 2.13377 17.844 2.15601L5.85299 4.29801C5.6539 4.33347 5.47365 4.43789 5.34383 4.59294C5.21401 4.74799 5.14291 4.94379 5.14299 5.14601V20.57H1.71399V22.285H22.286V20.57H18.857V3.00401ZM15 20.57H17.143V4.02301L6.85699 5.86001V20.57H8.99999V16.29C8.99999 16.287 9.00199 16.286 9.00399 16.286H14.996C14.998 16.286 15 16.288 15 16.29V20.57ZM13.286 20.57V18H10.714V20.571L13.286 20.57ZM8.99999 9.42701H15V7.71301H8.99999V9.42701ZM15 13.713H8.99999V12H15V13.713Z" fill="black"/>
</svg>
