<svg width="24" height="24" viewBox="0 0 24 24" fill="none" xmlns="http://www.w3.org/2000/svg">
<path fill-rule="evenodd" clip-rule="evenodd" d="M2.57599 4.713C2.46284 4.71287 2.35077 4.73504 2.24619 4.77825C2.14161 4.82146 2.04658 4.88486 1.96652 4.96483C1.88647 5.04479 1.82296 5.13975 1.77962 5.24428C1.73629 5.3488 1.71399 5.46085 1.71399 5.574V18.423C1.71399 18.898 2.09999 19.284 2.57599 19.284H21.424C21.5371 19.2841 21.6492 19.262 21.7538 19.2187C21.8584 19.1755 21.9534 19.1121 22.0335 19.0322C22.1135 18.9522 22.177 18.8572 22.2204 18.7527C22.2637 18.6482 22.286 18.5362 22.286 18.423V5.574C22.286 5.46085 22.2637 5.3488 22.2204 5.24428C22.177 5.13975 22.1135 5.04479 22.0335 4.96483C21.9534 4.88486 21.8584 4.82146 21.7538 4.77825C21.6492 4.73504 21.5371 4.71287 21.424 4.713H2.57599ZM3.42899 17.57V6.427H20.57V17.57H3.42999H3.42899ZM18.857 12.856H13.286V14.57H18.857V12.856ZM13.286 9.427H16.714V11.142H13.286V9.427ZM6.85699 13.713V10.284H9.85699V13.713H6.85699ZM5.14299 8.999C5.14299 8.762 5.33499 8.57 5.57099 8.57H11.143C11.379 8.57 11.571 8.762 11.571 8.999V14.999C11.5707 15.1124 11.5255 15.2211 11.4453 15.3013C11.3651 15.3816 11.2564 15.4267 11.143 15.427H5.56999C5.4569 15.4265 5.3486 15.3813 5.26864 15.3014C5.18867 15.2214 5.14352 15.1131 5.14299 15V9V8.999Z" fill="black"/>
</svg>
