<svg width="24" height="24" viewBox="0 0 24 24" fill="none" xmlns="http://www.w3.org/2000/svg">
<path fill-rule="evenodd" clip-rule="evenodd" d="M14.1431 19.715C14.8747 19.715 15.5992 19.5709 16.2752 19.2909C16.9511 19.0109 17.5653 18.6005 18.0827 18.0831C18.6001 17.5658 19.0105 16.9516 19.2905 16.2756C19.5704 15.5997 19.7146 14.8752 19.7146 14.1435C19.7146 13.4118 19.5704 12.6873 19.2905 12.0114C19.0105 11.3354 18.6001 10.7212 18.0827 10.2038C17.5653 9.68649 16.9511 9.27609 16.2752 8.9961C15.5992 8.71611 14.8747 8.57199 14.1431 8.57199C12.6654 8.57199 11.2483 9.15899 10.2034 10.2038C9.15855 11.2487 8.57156 12.6658 8.57156 14.1435C8.57156 15.6211 9.15855 17.0383 10.2034 18.0831C11.2483 19.128 12.6654 19.715 14.1431 19.715ZM14.1431 21.429C15.0999 21.429 16.0473 21.2405 16.9313 20.8744C17.8153 20.5082 18.6185 19.9715 19.295 19.295C19.9716 18.6184 20.5083 17.8152 20.8744 16.9312C21.2406 16.0472 21.4291 15.0998 21.4291 14.143C21.4291 13.1862 21.2406 12.2387 20.8744 11.3548C20.5083 10.4708 19.9716 9.66758 19.295 8.99101C18.6185 8.31445 17.8153 7.77776 16.9313 7.41161C16.0473 7.04545 15.0999 6.85699 14.1431 6.85699C12.2107 6.85699 10.3575 7.62462 8.99108 8.99101C7.62469 10.3574 6.85706 12.2106 6.85706 14.143C6.85706 16.0754 7.62469 17.9286 8.99108 19.295C10.3575 20.6614 12.2107 21.429 14.1431 21.429Z" fill="black"/>
<path d="M13.741 11.372C13.7715 11.29 13.8264 11.2194 13.8983 11.1695C13.9701 11.1195 14.0555 11.0928 14.143 11.0928C14.2305 11.0928 14.3159 11.1195 14.3877 11.1695C14.4596 11.2194 14.5144 11.29 14.545 11.372L15.116 12.916C15.16 13.033 15.252 13.126 15.37 13.169L16.914 13.741C16.9956 13.7717 17.066 13.8266 17.1156 13.8984C17.1653 13.9701 17.1919 14.0553 17.1919 14.1425C17.1919 14.2298 17.1653 14.3149 17.1156 14.3867C17.066 14.4584 16.9956 14.5133 16.914 14.544L15.369 15.116C15.3111 15.1375 15.2585 15.1712 15.2149 15.2149C15.1712 15.2585 15.1375 15.3111 15.116 15.369L14.545 16.913C14.5144 16.995 14.4596 17.0657 14.3877 17.1156C14.3159 17.1655 14.2305 17.1922 14.143 17.1922C14.0555 17.1922 13.9701 17.1655 13.8983 17.1156C13.8264 17.0657 13.7715 16.995 13.741 16.913L13.169 15.369C13.1475 15.3111 13.1138 15.2585 13.0701 15.2149C13.0265 15.1712 12.9739 15.1375 12.916 15.116L11.372 14.544C11.2903 14.5133 11.22 14.4584 11.1704 14.3867C11.1207 14.3149 11.0941 14.2298 11.0941 14.1425C11.0941 14.0553 11.1207 13.9701 11.1704 13.8984C11.22 13.8266 11.2903 13.7717 11.372 13.741L12.916 13.169C12.9739 13.1475 13.0265 13.1138 13.0701 13.0701C13.1138 13.0265 13.1475 12.9739 13.169 12.916L13.741 11.372Z" fill="black"/>
<path fill-rule="evenodd" clip-rule="evenodd" d="M14.56 6.86801C14.1121 6.16421 13.5118 5.56998 12.8036 5.12919C12.0953 4.6884 11.2971 4.41231 10.4678 4.32129C9.63857 4.23026 8.79946 4.32664 8.01244 4.6033C7.22542 4.87996 6.51058 5.32984 5.92069 5.91973C5.33079 6.50962 4.88091 7.22447 4.60425 8.01149C4.32759 8.79851 4.23122 9.63762 4.32224 10.4669C4.41326 11.2961 4.68936 12.0943 5.13015 12.8026C5.57094 13.5109 6.16516 14.1111 6.86897 14.559C6.91097 15.303 7.06497 16.017 7.31397 16.685C6.17074 16.2586 5.15293 15.5518 4.35391 14.6296C3.5549 13.7075 3.00028 12.5994 2.74094 11.4071C2.4816 10.2148 2.52584 8.97647 2.86962 7.80573C3.2134 6.63498 3.84569 5.56932 4.70848 4.70653C5.57128 3.84374 6.63694 3.21144 7.80768 2.86767C8.97843 2.52389 10.2168 2.47964 11.4091 2.73898C12.6014 2.99832 13.7094 3.55295 14.6316 4.35196C15.5538 5.15097 16.2605 6.16879 16.687 7.31201C16.0043 7.05805 15.2872 6.90837 14.56 6.86801Z" fill="black"/>
</svg>
