<svg width="24" height="24" viewBox="0 0 24 24" fill="none" xmlns="http://www.w3.org/2000/svg">
<path d="M21.429 11.143H11.914C11.486 8.69999 9.38599 6.85699 6.85699 6.85699C4.02999 6.85699 1.71399 9.17199 1.71399 12C1.71399 14.829 4.02899 17.143 6.85699 17.143C9.38599 17.143 11.529 15.3 11.914 12.857H17.143V16.286H18.857V12.857H20.572V16.286H22.286V12C22.2852 11.7729 22.1947 11.5554 22.0341 11.3949C21.8736 11.2343 21.656 11.1438 21.429 11.143ZM6.85699 15.43C5.94855 15.4268 5.07826 15.0643 4.43617 14.4217C3.79409 13.779 3.43236 12.9084 3.42999 12C3.43289 11.0917 3.79498 10.2215 4.43723 9.57924C5.07948 8.93699 5.94972 8.57489 6.85799 8.57199C7.76626 8.57489 8.6365 8.93699 9.27875 9.57924C9.92099 10.2215 10.2831 11.0917 10.286 12C10.2834 12.9086 9.92124 13.7793 9.27874 14.4217C8.63625 15.0642 7.7656 15.4274 6.85699 15.43Z" fill="black"/>
</svg>
