<svg width="24" height="24" viewBox="0 0 24 24" fill="none" xmlns="http://www.w3.org/2000/svg">
<path fill-rule="evenodd" clip-rule="evenodd" d="M4.28595 11.144H10.286C10.513 11.1432 10.7305 11.0527 10.8911 10.8921C11.0516 10.7316 11.1422 10.514 11.143 10.287V4.28699C11.1422 4.05995 11.0516 3.84242 10.8911 3.68188C10.7305 3.52133 10.513 3.43078 10.286 3.42999H4.28595C4.05891 3.43078 3.84139 3.52133 3.68084 3.68188C3.52029 3.84242 3.42975 4.05995 3.42896 4.28699V10.287C3.42975 10.514 3.52029 10.7316 3.68084 10.8921C3.84139 11.0527 4.05891 11.1432 4.28595 11.144ZM9.42896 9.42999H5.14296V5.14399H9.42896V9.42999ZM13.714 11.144H19.714C19.9412 11.1435 20.159 11.053 20.3197 10.8925C20.4805 10.7319 20.5712 10.5142 20.572 10.287V4.28699C20.5712 4.05995 20.4806 3.84242 20.3201 3.68188C20.1595 3.52133 19.942 3.43078 19.715 3.42999H13.715C13.4877 3.43052 13.27 3.52095 13.1092 3.68152C12.9484 3.8421 12.8577 4.05977 12.857 4.28699V10.287C12.8577 10.514 12.9483 10.7316 13.1088 10.8921C13.2694 11.0527 13.4869 11.1432 13.714 11.144ZM18.857 9.42999H14.572V5.14399H18.857V9.42999ZM10.286 20.572H4.28595C4.05891 20.5712 3.84139 20.4807 3.68084 20.3201C3.52029 20.1596 3.42975 19.942 3.42896 19.715V13.715C3.42948 13.4878 3.51991 13.27 3.68049 13.1092C3.84106 12.9485 4.05874 12.8578 4.28595 12.857H10.286C10.5132 12.8578 10.7308 12.9485 10.8914 13.1092C11.052 13.27 11.1424 13.4878 11.143 13.715V19.715C11.1422 19.942 11.0516 20.1596 10.8911 20.3201C10.7305 20.4807 10.513 20.5712 10.286 20.572ZM5.14296 18.857H9.42896V14.572H5.14296V18.857ZM13.715 20.572H19.715C19.942 20.5712 20.1595 20.4807 20.3201 20.3201C20.4806 20.1596 20.5712 19.942 20.572 19.715V13.715C20.5714 13.4878 20.481 13.27 20.3204 13.1092C20.1598 12.9485 19.9422 12.8578 19.715 12.857H13.715C13.4876 12.8575 13.2696 12.9481 13.1088 13.1089C12.948 13.2697 12.8575 13.4876 12.857 13.715V19.715C12.8577 19.9422 12.9484 20.1599 13.1092 20.3205C13.27 20.481 13.4877 20.5715 13.715 20.572ZM18.857 18.857H14.572V14.572H18.857V18.857Z" fill="black"/>
</svg>
