<svg width="24" height="24" viewBox="0 0 24 24" fill="none" xmlns="http://www.w3.org/2000/svg">
<path d="M20.486 9.043C20.4212 8.89153 20.3137 8.76223 20.1766 8.67094C20.0395 8.57965 19.8787 8.53032 19.714 8.529H14.4L17.871 3.001C17.9513 2.87375 17.9975 2.72794 18.005 2.57764C18.0126 2.42734 17.9812 2.27764 17.914 2.143C17.743 1.886 17.486 1.715 17.186 1.715H11.143C10.843 1.715 10.586 1.886 10.414 2.143L3.55698 13.286C3.47307 13.4132 3.42834 13.5621 3.42834 13.7145C3.42834 13.8668 3.47307 14.0158 3.55698 14.143C3.72798 14.401 3.98598 14.572 4.28598 14.572H10.071L8.57098 21.215C8.52475 21.4026 8.54686 21.6006 8.63336 21.7734C8.71985 21.9462 8.86507 22.0826 9.04298 22.158C9.17098 22.201 9.29998 22.243 9.42798 22.243C9.55135 22.2481 9.67415 22.2236 9.78604 22.1714C9.89794 22.1192 9.99566 22.0408 10.071 21.943L20.357 9.943C20.4602 9.8199 20.527 9.67041 20.5498 9.51139C20.5726 9.35236 20.5505 9.19013 20.486 9.043ZM11.014 18.215L12 13.843C12.0256 13.7165 12.0236 13.586 11.9941 13.4603C11.9645 13.3347 11.9082 13.2169 11.829 13.115C11.657 12.901 11.399 12.815 11.143 12.815H5.82798L11.614 3.386H15.6L12.129 8.915C12.0488 9.04212 12.0027 9.18776 11.9952 9.33786C11.9877 9.48797 12.0189 9.63748 12.086 9.772C12.257 10.029 12.514 10.201 12.814 10.201H17.828L11.014 18.215Z" fill="black"/>
</svg>
