<svg width="24" height="24" viewBox="0 0 24 24" fill="none" xmlns="http://www.w3.org/2000/svg">
<path fill-rule="evenodd" clip-rule="evenodd" d="M14.571 10.284V12C14.571 14.828 12.257 17.143 9.42801 17.143C6.60001 17.143 4.28601 14.828 4.28601 12V6.85601C4.28601 4.02701 6.60001 1.71301 9.42901 1.71301C11.914 1.71301 14.057 3.42701 14.529 5.82701L12.857 6.17001C12.557 4.62701 11.057 3.42701 9.42901 3.42701C8.52022 3.42939 7.64932 3.79139 7.00661 4.43391C6.3639 5.07643 6.00165 5.94722 5.99901 6.85601V11.999C6.00191 12.9076 6.36428 13.7782 7.00696 14.4205C7.64964 15.0628 8.52039 15.4246 9.42901 15.427C10.3371 15.4241 11.2072 15.0622 11.8494 14.4201C12.4916 13.7781 12.8538 12.9081 12.857 12V10.285L14.571 10.284ZM9.42801 12C9.42801 9.17201 11.743 6.85701 14.571 6.85701C17.4 6.85701 19.714 9.17201 19.714 12V17.143C19.714 19.972 17.4 22.286 14.571 22.286C12.086 22.286 9.90001 20.572 9.42801 18.172L11.143 17.829C11.443 19.415 12.9 20.572 14.571 20.572C15.4796 20.5694 16.3503 20.2073 16.9928 19.5648C17.6353 18.9223 17.9974 18.0516 18 17.143V12C17.9971 11.0916 17.6349 10.2212 16.9924 9.5789C16.35 8.93663 15.4795 8.57465 14.571 8.57201C13.6627 8.57491 12.7925 8.93701 12.1503 9.57926C11.508 10.2215 11.1459 11.0917 11.143 12V13.715H9.42801V12Z" fill="black"/>
</svg>
