<svg width="16" height="16" viewBox="0 0 16 16" fill="none" xmlns="http://www.w3.org/2000/svg">
<path fill-rule="evenodd" clip-rule="evenodd" d="M6.54273 5.892H13.1427C13.2941 5.89253 13.4391 5.95289 13.5461 6.05992C13.6532 6.16695 13.7135 6.31197 13.7141 6.46333V13.3207C13.7127 13.7748 13.5316 14.21 13.2105 14.5311C12.8894 14.8522 12.4542 15.0333 12.0001 15.0347H4.00007C3.5458 15.0334 3.11049 14.8525 2.78921 14.5313C2.46793 14.2102 2.28681 13.7749 2.2854 13.3207V6.46333C2.28593 6.31185 2.34638 6.16674 2.45356 6.05969C2.56073 5.95264 2.70592 5.89235 2.8574 5.892H5.20007C5.02714 5.47542 4.93963 5.02836 4.94273 4.57733C4.94273 3.66333 5.2854 2.806 5.94273 2.14933C6.26145 1.83 6.64001 1.57665 7.05675 1.4038C7.47349 1.23094 7.92023 1.14197 8.3714 1.14197C8.82257 1.14197 9.26931 1.23094 9.68605 1.4038C10.1028 1.57665 10.4814 1.83 10.8001 2.14933L10.0001 2.94933C9.57059 2.5237 8.9904 2.2849 8.38573 2.2849C7.78107 2.2849 7.20088 2.5237 6.7714 2.94933C6.35143 3.3875 6.11607 3.9704 6.11407 4.57733C6.11407 5.06333 6.2854 5.52067 6.54273 5.892ZM12.0001 13.892C12.1514 13.8915 12.2964 13.8311 12.4035 13.7241C12.5105 13.617 12.5709 13.472 12.5714 13.3207V7.03467H3.42873V13.3207C3.42926 13.472 3.48962 13.617 3.59666 13.7241C3.70369 13.8311 3.8487 13.8915 4.00007 13.892H12.0001ZM7.42873 12.7487V10.8627C7.0854 10.6913 6.85673 10.32 6.85673 9.89133C6.85779 9.58849 6.97861 9.29836 7.19281 9.08428C7.40702 8.87019 7.69722 8.74954 8.00007 8.74867C8.3028 8.74972 8.59283 8.87045 8.80689 9.08451C9.02095 9.29857 9.14168 9.5886 9.14273 9.89133C9.14273 10.2913 8.91407 10.6633 8.5714 10.8627V12.7487H7.42873Z" fill="black"/>
</svg>
