<svg width="24" height="24" viewBox="0 0 24 24" fill="none" xmlns="http://www.w3.org/2000/svg">
<path fill-rule="evenodd" clip-rule="evenodd" d="M17.143 8.57001H19.714C19.941 8.5708 20.1585 8.66135 20.3191 8.8219C20.4796 8.98244 20.5702 9.19997 20.571 9.42701V19.713C20.5689 20.3942 20.2973 21.047 19.8156 21.5287C19.3339 22.0104 18.6812 22.2819 18 22.284H5.99998C5.31858 22.2822 4.66561 22.0107 4.18369 21.529C3.70178 21.0473 3.43009 20.3944 3.42798 19.713V9.42701C3.42877 9.19979 3.51945 8.98212 3.68022 8.82154C3.84098 8.66097 4.05876 8.57054 4.28598 8.57001H6.85698V6.85601C6.85698 4.02701 9.17098 1.71301 12 1.71301C14.829 1.71301 17.143 4.02701 17.143 6.85601V8.57001ZM12 3.42701C11.0912 3.42939 10.2203 3.79139 9.57758 4.43391C8.93487 5.07643 8.57262 5.94722 8.56998 6.85601V8.57001H15.427V6.85601C15.4243 5.94774 15.0625 5.0774 14.4204 4.43496C13.7784 3.79253 12.9082 3.43018 12 3.42701ZM18 20.57C18.227 20.5692 18.4445 20.4787 18.6051 20.3181C18.7656 20.1576 18.8562 19.9401 18.857 19.713V10.284H5.14298V19.713C5.14377 19.9401 5.23431 20.1576 5.39486 20.3181C5.55541 20.4787 5.77293 20.5692 5.99998 20.57H18ZM11.143 18.854V16.024C10.628 15.768 10.285 15.211 10.285 14.568C10.2866 14.1137 10.4678 13.6786 10.7891 13.3574C11.1104 13.0363 11.5457 12.8553 12 12.854C12.4541 12.8556 12.8891 13.0367 13.2102 13.3578C13.5313 13.6789 13.7124 14.1139 13.714 14.568C13.714 15.168 13.371 15.725 12.857 16.025V18.854H11.143Z" fill="black"/>
</svg>
