<svg width="24" height="24" viewBox="0 0 24 24" fill="none" xmlns="http://www.w3.org/2000/svg">
<path d="M21.429 3H2.57199C2.34477 3.00053 2.12699 3.09096 1.96623 3.25153C1.80546 3.41211 1.71478 3.62978 1.71399 3.857V16.714C1.71478 16.941 1.80532 17.1586 1.96587 17.3191C2.12642 17.4797 2.34394 17.5702 2.57099 17.571H6.85699V20.143C6.85699 20.443 7.02899 20.743 7.32899 20.914C7.45699 21 7.58599 21 7.71399 21C7.88047 21.0034 8.04437 20.9586 8.18599 20.871L13.114 17.571H21.429C21.656 17.5702 21.8736 17.4797 22.0341 17.3191C22.1947 17.1586 22.2852 16.941 22.286 16.714V3.857C22.2852 3.62995 22.1947 3.41243 22.0341 3.25188C21.8736 3.09134 21.656 3.00079 21.429 3ZM20.572 15.857H12.857C12.6909 15.8538 12.5273 15.8986 12.386 15.986L8.57199 18.557V16.714C8.5712 16.4868 8.48052 16.2691 8.31975 16.1085C8.15899 15.948 7.94121 15.8575 7.71399 15.857H3.42999V4.714H20.57V15.857H20.572Z" fill="black"/>
</svg>
