<svg width="24" height="24" viewBox="0 0 24 24" fill="none" xmlns="http://www.w3.org/2000/svg">
<path d="M20.572 15C19.029 15 18.857 13.8 18.857 13.285V9.00001C18.857 5.22801 15.772 2.14301 12 2.14301C8.23002 2.14301 5.14302 5.22801 5.14302 9.00001V13.285C5.14302 13.8 4.97202 15 3.42902 15C3.20197 15.0008 2.98445 15.0913 2.8239 15.2519C2.66336 15.4124 2.57281 15.63 2.57202 15.857V18.428C2.57281 18.6551 2.66336 18.8726 2.8239 19.0331C2.98445 19.1937 3.20197 19.2842 3.42902 19.285H9.42902C9.43087 19.9664 9.7023 20.6194 10.184 21.1013C10.6658 21.5832 11.3186 21.8549 12 21.857C12.6816 21.8552 13.3347 21.5836 13.8167 21.1016C14.2986 20.6197 14.5702 19.9666 14.572 19.285H20.572C20.7991 19.2842 21.0166 19.1937 21.1771 19.0331C21.3377 18.8726 21.4282 18.6551 21.429 18.428V15.857C21.4282 15.63 21.3377 15.4124 21.1771 15.2519C21.0166 15.0913 20.7991 15.0008 20.572 15ZM12 20.143C11.7728 20.1422 11.5551 20.0515 11.3946 19.8908C11.234 19.73 11.1435 19.5122 11.143 19.285H12.857C12.8565 19.5122 12.7661 19.73 12.6055 19.8908C12.4449 20.0515 12.2272 20.1422 12 20.143ZM19.714 17.571H4.28602V16.628C6.04302 16.285 6.85702 14.785 6.85702 13.285V9.00001C6.85702 6.17101 9.17202 3.85701 12 3.85701C14.829 3.85701 17.143 6.17101 17.143 9.00001V13.285C17.143 14.785 17.957 16.285 19.714 16.628V17.571Z" fill="black"/>
</svg>
