<svg width="24" height="24" viewBox="0 0 24 24" fill="none" xmlns="http://www.w3.org/2000/svg">
<path d="M21.857 8.658L18 6.558V2.572C17.9992 2.34495 17.9087 2.12743 17.7481 1.96688C17.5876 1.80633 17.37 1.71579 17.143 1.715H6.85699C6.62994 1.71579 6.41242 1.80633 6.25187 1.96688C6.09132 2.12743 6.00078 2.34495 5.99999 2.572V6.601L2.14299 8.7C1.88599 8.871 1.71399 9.128 1.71399 9.471V21.471C1.71478 21.698 1.80532 21.9156 1.96587 22.0761C2.12642 22.2367 2.34394 22.3272 2.57099 22.328H21.43C21.657 22.3272 21.8746 22.2367 22.0351 22.0761C22.1957 21.9156 22.2862 21.698 22.287 21.471V9.429C22.287 9.129 22.114 8.829 21.857 8.658ZM20.443 9.858L18 11.186V8.53L20.443 9.859V9.858ZM16.286 3.429V12.129L12 14.486L7.71399 12.13V3.43H16.286V3.429ZM5.99999 11.186L3.55699 9.858L5.99999 8.529V11.186ZM3.42999 20.572V11.743L11.573 16.201C11.701 16.286 11.83 16.286 12.001 16.286C12.172 16.286 12.301 16.243 12.43 16.201L20.573 11.743V20.572H3.42799H3.42999Z" fill="black"/>
</svg>
