<svg width="16" height="16" viewBox="0 0 16 16" fill="none" xmlns="http://www.w3.org/2000/svg">
<path fill-rule="evenodd" clip-rule="evenodd" d="M8.57125 0.858002H14.2852C14.4366 0.858529 14.5816 0.918892 14.6887 1.02592C14.7957 1.13296 14.8561 1.27797 14.8566 1.42934V7.144H13.7139V2.8L7.42858 9.086L6.62858 8.286L12.9139 2H8.57125V0.858002ZM2.28591 13.9987H11.9999V9.99867H13.1426V14.57C13.1422 14.7215 13.0819 14.8667 12.9749 14.9738C12.8678 15.081 12.7227 15.1415 12.5712 15.142H1.71458C1.56298 15.1416 1.4177 15.0813 1.3105 14.9741C1.20331 14.8669 1.14293 14.7216 1.14258 14.57V3.142C1.14293 2.99052 1.20322 2.84534 1.31027 2.73816C1.41732 2.63098 1.56243 2.57053 1.71391 2.57H5.71391V3.71334H2.28658V13.9987H2.28591Z" fill="black"/>
</svg>
