<svg width="24" height="24" viewBox="0 0 24 24" fill="none" xmlns="http://www.w3.org/2000/svg">
<path fill-rule="evenodd" clip-rule="evenodd" d="M9.85706 3.004C9.85706 3.002 9.85906 3 9.86106 3H15.8591C16.8071 3 17.5711 3.77 17.5711 4.714V5.786H15.8571V4.714H9.86106C9.85999 4.714 9.85898 4.71358 9.85823 4.71283C9.85748 4.71208 9.85706 4.71106 9.85706 4.71V3.004ZM15.8571 4.714V4.713V4.714Z" fill="#0E0F0C"/>
<path fill-rule="evenodd" clip-rule="evenodd" d="M11.143 4.71301H12.857V6.42701H13.286C13.759 6.42701 14.143 6.81101 14.143 7.28401V7.71401H14.248C15.551 7.71401 16.648 8.68801 16.802 9.98201L17.767 18.125C17.8098 18.4858 17.7757 18.8516 17.6669 19.1982C17.5581 19.5449 17.3771 19.8645 17.1358 20.1362C16.8945 20.4078 16.5984 20.6252 16.2669 20.7741C15.9355 20.923 15.5763 21 15.213 21H8.78701C8.42373 21.0001 8.06454 20.9233 7.73313 20.7745C7.40171 20.6257 7.10559 20.4084 6.86428 20.1368C6.62296 19.8653 6.44194 19.5457 6.33313 19.1991C6.22431 18.8525 6.19019 18.4868 6.23301 18.126L7.19801 9.98301C7.27197 9.35766 7.57288 8.7812 8.04364 8.36297C8.51441 7.94473 9.12229 7.71382 9.75201 7.71401H9.85701V7.28501C9.85701 6.81201 10.241 6.42801 10.714 6.42801H11.143V4.71301ZM16.065 18.327C16.0793 18.4473 16.0679 18.5693 16.0316 18.6849C15.9953 18.8004 15.9349 18.907 15.8544 18.9975C15.7738 19.0881 15.6751 19.1605 15.5645 19.21C15.454 19.2596 15.3342 19.2852 15.213 19.285H8.78701C8.66586 19.2852 8.54605 19.2596 8.4355 19.21C8.32495 19.1605 8.22616 19.0881 8.14565 18.9975C8.06514 18.907 8.00474 18.8004 7.96843 18.6849C7.93212 18.5693 7.92073 18.4473 7.93501 18.327L8.90101 10.184C8.92571 9.97585 9.02585 9.78396 9.18249 9.64465C9.33912 9.50534 9.54138 9.42826 9.75101 9.42801H14.248C14.683 9.42801 15.048 9.75301 15.1 10.184L16.065 18.327Z" fill="#0E0F0C"/>
</svg>
