<svg width="24" height="24" viewBox="0 0 24 24" fill="none" xmlns="http://www.w3.org/2000/svg">
<path fill-rule="evenodd" clip-rule="evenodd" d="M8.571 1.71301C7.88913 1.71301 7.23518 1.98389 6.75303 2.46604C6.27087 2.9482 6 3.60214 6 4.28401V19.713C6 20.0506 6.0665 20.385 6.19571 20.6969C6.32491 21.0088 6.51429 21.2922 6.75303 21.531C6.99177 21.7697 7.27519 21.9591 7.58712 22.0883C7.89905 22.2175 8.23337 22.284 8.571 22.284H15.429C15.7666 22.284 16.101 22.2175 16.4129 22.0883C16.7248 21.9591 17.0082 21.7697 17.247 21.531C17.4857 21.2922 17.6751 21.0088 17.8043 20.6969C17.9335 20.385 18 20.0506 18 19.713V4.28401C18 3.60214 17.7291 2.9482 17.247 2.46604C16.7648 1.98389 16.1109 1.71301 15.429 1.71301H8.57H8.571ZM7.714 4.28401C7.714 3.81101 8.098 3.42701 8.571 3.42701H10.401C10.3257 3.55729 10.286 3.70511 10.2859 3.85561C10.2858 4.0061 10.3254 4.15396 10.4006 4.28431C10.4758 4.41466 10.584 4.52291 10.7143 4.59816C10.8447 4.67342 10.9925 4.71303 11.143 4.71301H12.857C13.0076 4.71321 13.1555 4.67372 13.286 4.59854C13.4165 4.52335 13.5248 4.41512 13.6002 4.28474C13.6755 4.15436 13.7151 4.00643 13.7151 3.85586C13.7151 3.70528 13.6754 3.55737 13.6 3.42701H15.429C15.902 3.42701 16.286 3.81101 16.286 4.28401V19.713C16.286 19.9403 16.1957 20.1583 16.035 20.319C15.8743 20.4797 15.6563 20.57 15.429 20.57H8.57C8.34271 20.57 8.12473 20.4797 7.96401 20.319C7.80329 20.1583 7.713 19.9403 7.713 19.713V4.28401H7.714Z" fill="black"/>
</svg>
