<svg width="24" height="24" viewBox="0 0 24 24" fill="none" xmlns="http://www.w3.org/2000/svg">
<path fill-rule="evenodd" clip-rule="evenodd" d="M8.99999 4.28401C8.99999 3.60214 9.27086 2.9482 9.75302 2.46604C10.2352 1.98389 10.8891 1.71301 11.571 1.71301H18.429C19.1109 1.71301 19.7648 1.98389 20.247 2.46604C20.7291 2.9482 21 3.60214 21 4.28401V19.713C21 20.0506 20.9335 20.385 20.8043 20.6969C20.6751 21.0088 20.4857 21.2922 20.247 21.531C20.0082 21.7697 19.7248 21.9591 19.4129 22.0883C19.1009 22.2175 18.7666 22.284 18.429 22.284H15.463L15.424 22.285H2.57599C2.46284 22.2851 2.35077 22.263 2.24619 22.2198C2.14161 22.1765 2.04658 22.1131 1.96652 22.0332C1.88647 21.9532 1.82296 21.8583 1.77962 21.7537C1.73629 21.6492 1.71399 21.5372 1.71399 21.424V12.004C1.71399 11.528 2.09999 11.142 2.57599 11.142H15.424C15.9 11.142 16.286 11.528 16.286 12.004V20.57H18.429C18.6563 20.57 18.8743 20.4797 19.035 20.319C19.1957 20.1583 19.286 19.9403 19.286 19.713V4.28401C19.286 4.05672 19.1957 3.83874 19.035 3.67802C18.8743 3.5173 18.6563 3.42701 18.429 3.42701H16.599C16.6743 3.55729 16.714 3.70511 16.7141 3.85561C16.7142 4.0061 16.6746 4.15396 16.5994 4.28431C16.5242 4.41466 16.416 4.52291 16.2857 4.59816C16.1553 4.67342 16.0075 4.71303 15.857 4.71301H14.143C13.9924 4.71321 13.8444 4.67372 13.714 4.59854C13.5835 4.52335 13.4752 4.41512 13.3998 4.28474C13.3245 4.15436 13.2849 4.00643 13.2849 3.85586C13.2849 3.70528 13.3246 3.55737 13.4 3.42701H11.571C11.3437 3.42701 11.1257 3.5173 10.965 3.67802C10.8043 3.83874 10.714 4.05672 10.714 4.28401V11.142H8.99999V4.28401ZM3.42899 20.571V14.479L8.07999 18.023C8.34438 18.2245 8.66759 18.3336 8.99999 18.3336C9.33239 18.3336 9.65559 18.2245 9.91999 18.023L14.571 14.479V20.571H3.42999H3.42899ZM8.99999 16.434L4.30399 12.857H13.696L8.99999 16.434Z" fill="black"/>
</svg>
