<svg width="24" height="24" viewBox="0 0 24 24" fill="none" xmlns="http://www.w3.org/2000/svg">
<path d="M12 1.713C6.34299 1.713 1.71399 6.341 1.71399 11.999C1.71399 17.656 6.34299 22.284 12 22.284C17.657 22.284 22.286 17.656 22.286 12C22.286 6.34 17.657 1.713 12 1.713ZM12.857 3.47C14.572 3.641 16.157 4.327 17.4 5.356L12.857 9.94V3.47ZM11.143 3.47V11.142H3.46999C3.85599 7.112 7.11399 3.856 11.143 3.47ZM12 20.57C9.87458 20.5718 7.82443 19.7832 6.24811 18.3575C4.67179 16.9318 3.68194 14.9709 3.47099 12.856H12.001C12.113 12.855 12.2238 12.8318 12.3268 12.7877C12.4298 12.7436 12.523 12.6794 12.601 12.599L18.643 6.556C19.8878 8.09725 20.5681 10.0178 20.571 11.999C20.571 16.713 16.714 20.57 12.001 20.57H12Z" fill="black"/>
</svg>
