<svg width="24" height="24" viewBox="0 0 24 24" fill="none" xmlns="http://www.w3.org/2000/svg">
<path fill-rule="evenodd" clip-rule="evenodd" d="M5.14294 20.777C5.14294 21.7 6.08694 22.323 6.93494 21.959L8.99994 21.074L11.4929 22.143C11.8169 22.281 12.1829 22.281 12.5069 22.143L14.9999 21.074L17.0649 21.959C17.2605 22.0427 17.4738 22.0766 17.6857 22.0576C17.8976 22.0386 18.1014 21.9674 18.279 21.8502C18.4566 21.7331 18.6024 21.5737 18.7032 21.3864C18.8041 21.1991 18.8569 20.9897 18.8569 20.777V2.99999C18.8569 2.28999 18.2819 1.71399 17.5709 1.71399H6.42994C5.71994 1.71399 5.14394 2.28999 5.14394 2.99999V20.778L5.14294 20.777ZM8.49294 19.426L6.85694 20.127V3.42699H17.1429V20.127L15.5069 19.426C15.3468 19.3573 15.1743 19.3218 14.9999 19.3218C14.8256 19.3218 14.6531 19.3573 14.4929 19.426L11.9999 20.495L9.50594 19.426C9.34603 19.3575 9.17389 19.3223 8.99994 19.3223C8.826 19.3223 8.65386 19.3575 8.49394 19.426H8.49294ZM8.57094 10.286V11.999H15.4289V10.285H8.56994L8.57094 10.286ZM8.57094 8.14199V6.42799H15.4289V8.14199H8.56994H8.57094ZM8.57094 14.142V15.857H15.4289V14.142H8.56994H8.57094Z" fill="black"/>
</svg>
