<svg width="24" height="24" viewBox="0 0 24 24" fill="none" xmlns="http://www.w3.org/2000/svg">
<path fill-rule="evenodd" clip-rule="evenodd" d="M20.572 5.19H22.286C22.286 6.39 22.286 8.062 20.914 8.877C21.214 9.605 21.386 10.377 21.386 11.148C21.386 12.562 21.386 14.534 19.672 15.862V19.719C19.6712 19.9462 19.5805 20.1639 19.4198 20.3245C19.259 20.485 19.0412 20.5755 18.814 20.576H16.243C15.857 20.576 15.557 20.319 15.429 19.976L14.786 18.006H10.029L9.38599 19.976C9.25699 20.319 8.95699 20.576 8.57199 20.576H5.99999C5.77294 20.5752 5.55542 20.4847 5.39487 20.3241C5.23432 20.1636 5.14378 19.946 5.14299 19.719V15.862C4.62899 15.519 4.19999 15.177 3.81399 14.576H2.57099C2.34394 14.5752 2.12642 14.4847 1.96587 14.3241C1.80532 14.1636 1.71478 13.946 1.71399 13.719V9.434C1.71478 9.20695 1.80532 8.98943 1.96587 8.82888C2.12642 8.66833 2.34394 8.57779 2.57099 8.57699H3.68599C4.01397 7.75651 4.52736 7.02305 5.18599 6.434V4.29C5.18599 3.99 5.31399 3.733 5.57199 3.561C5.78599 3.39 6.12899 3.38999 6.38599 3.51799L9.47199 5.06099C12.429 3.86099 15.642 4.03299 18.172 5.66099C18.9206 6.11944 19.575 6.71644 20.1 7.42C20.486 7.12 20.571 6.47799 20.571 5.192L20.572 5.19ZM18 15.477C18 15.177 18.129 14.92 18.386 14.749C19.543 14.02 19.714 13.12 19.672 11.192C19.672 9.649 18.729 8.10599 17.186 7.11999C15.043 5.74899 12.257 5.663 9.72899 6.82C9.61794 6.8833 9.49232 6.91659 9.36449 6.91659C9.23666 6.91659 9.11104 6.8833 8.99999 6.82L6.81399 5.70499V6.905C6.81399 7.205 6.68599 7.462 6.42899 7.634C6.42899 7.634 5.39999 8.319 5.05699 9.691C5.01519 9.87504 4.91161 10.0392 4.76351 10.1562C4.61541 10.2732 4.43171 10.3359 4.24299 10.334H3.38599V12.905H4.24299C4.58599 12.905 4.88599 13.076 5.01399 13.377C5.33099 13.971 5.64899 14.199 6.30399 14.671L6.47099 14.791C6.72899 14.919 6.85699 15.177 6.85699 15.476V18.906H7.97099L8.61399 16.934C8.74299 16.591 9.04299 16.334 9.42899 16.334H15.429C15.814 16.334 16.114 16.591 16.243 16.934L16.886 18.905H18V15.476V15.477ZM9.21399 9.264C9.69098 8.7843 10.2589 8.40457 10.8844 8.14701C11.5099 7.88944 12.1805 7.75923 12.857 7.764C13.672 7.764 14.486 7.978 15.214 8.321C15.686 8.578 16.114 8.878 16.5 9.264L15.3 10.464C15.032 10.2399 14.7452 10.0392 14.443 9.864C13.9526 9.61079 13.4089 9.47845 12.857 9.47799C11.914 9.47799 11.057 9.82099 10.414 10.464L9.21399 9.264Z" fill="black"/>
</svg>
