<svg width="24" height="24" viewBox="0 0 24 24" fill="none" xmlns="http://www.w3.org/2000/svg">
<path fill-rule="evenodd" clip-rule="evenodd" d="M20.34 13.456L21.711 14.27C21.926 14.399 22.054 14.57 22.054 14.87C22.097 15.084 22.097 15.299 21.969 15.513L19.997 18.899C19.869 19.07 19.697 19.241 19.483 19.284C19.268 19.327 19.054 19.327 18.84 19.199L17.468 18.384C16.74 19.027 15.883 19.499 14.94 19.841V21.427C14.9392 21.6541 14.8486 21.8716 14.6881 22.0321C14.5275 22.1927 14.31 22.2832 14.083 22.284H10.14C9.91292 22.2832 9.6954 22.1927 9.53485 22.0321C9.3743 21.8716 9.28376 21.6541 9.28297 21.427V19.756C8.36487 19.4142 7.51016 18.9218 6.75397 18.299L5.38297 19.113C5.21097 19.241 4.95397 19.241 4.73997 19.199C4.52597 19.156 4.35397 19.027 4.22597 18.813L2.25397 15.427C2.16797 15.256 2.12597 14.999 2.16797 14.784C2.21097 14.57 2.33997 14.399 2.55397 14.27L3.92597 13.456C3.84053 12.975 3.79736 12.4875 3.79697 11.999C3.79697 11.527 3.83997 11.056 3.92597 10.541L2.55397 9.72701C2.38297 9.59901 2.21097 9.42701 2.16797 9.21301C2.12597 8.99901 2.12597 8.78401 2.25397 8.57001L4.31097 5.09901C4.43997 4.92701 4.61097 4.75601 4.82597 4.71301C5.03997 4.67001 5.25397 4.67001 5.46797 4.79901L6.83997 5.61301C7.56797 4.97001 8.42597 4.49901 9.36797 4.15601V2.57001C9.36876 2.34279 9.45944 2.12512 9.6202 1.96454C9.78097 1.80397 9.99875 1.71354 10.226 1.71301H14.168C14.3952 1.71354 14.613 1.80397 14.7737 1.96454C14.9345 2.12512 15.0252 2.34279 15.026 2.57001V4.19901C15.9437 4.54096 16.798 5.03336 17.554 5.65601L18.926 4.84101C19.097 4.71301 19.354 4.71301 19.569 4.75601C19.783 4.79901 19.954 4.92701 20.083 5.14101L22.01 8.57001C22.139 8.74101 22.139 8.99901 22.096 9.21301C22.053 9.42701 21.925 9.59901 21.71 9.72701L20.339 10.541C20.425 11.013 20.467 11.527 20.467 11.999C20.467 12.47 20.426 12.941 20.34 13.456ZM18.754 11.999C18.754 11.441 18.669 10.884 18.54 10.327C18.454 9.94101 18.583 9.55601 19.011 9.34101L20.211 8.65601L19.097 6.72701L17.897 7.41301C17.736 7.50987 17.5471 7.54981 17.3606 7.52642C17.1742 7.50302 17.001 7.41765 16.869 7.28401C16.054 6.51301 15.069 5.91301 13.954 5.61301C13.7699 5.57121 13.6057 5.46764 13.4888 5.31954C13.3718 5.17144 13.309 4.98774 13.311 4.79901V3.42701H11.083V4.84101C11.0851 5.02991 11.0225 5.21384 10.9055 5.36215C10.7885 5.51045 10.6242 5.61417 10.44 5.65601C9.33773 5.94497 8.33208 6.52165 7.52597 7.32701C7.39382 7.46089 7.22047 7.54641 7.03382 7.56981C6.84717 7.59321 6.65807 7.55312 6.49697 7.45601L5.29697 6.77001L4.18297 8.69901L5.38297 9.38401C5.68297 9.55601 5.85397 9.94101 5.76797 10.327C5.6335 10.8748 5.56171 11.436 5.55397 12C5.55397 12.557 5.63997 13.114 5.76797 13.671C5.89697 14.014 5.72597 14.4 5.38297 14.614L4.18297 15.3L5.29697 17.228L6.41097 16.585C6.57207 16.4879 6.76117 16.4478 6.94782 16.4712C7.13447 16.4946 7.30782 16.5801 7.43997 16.714C8.25397 17.485 9.23997 18.085 10.354 18.385C10.5382 18.4269 10.7025 18.5306 10.8195 18.6789C10.9365 18.8272 10.9991 19.0111 10.997 19.2V20.571H13.226V19.157C13.226 18.771 13.483 18.428 13.868 18.343C14.9707 18.0539 15.9767 17.4769 16.783 16.671C16.915 16.5374 17.0882 16.452 17.2746 16.4286C17.4611 16.4052 17.65 16.4452 17.811 16.542L19.011 17.228L20.126 15.3L18.926 14.614C18.626 14.443 18.454 14.057 18.54 13.671C18.6743 13.1239 18.7461 12.5633 18.754 12V11.999ZM7.86797 11.999C7.87113 10.8633 8.32371 9.77495 9.1268 8.97185C9.9299 8.16876 11.0182 7.71618 12.154 7.71301C13.2897 7.71618 14.378 8.16876 15.1811 8.97185C15.9842 9.77495 16.4368 10.8633 16.44 11.999C16.4365 13.1346 15.9838 14.2226 15.1808 15.0255C14.3777 15.8284 13.2895 16.2808 12.154 16.284C11.0186 16.2808 9.93055 15.8285 9.12751 15.0259C8.32447 14.2232 7.87166 13.1354 7.86797 12V11.999ZM9.58297 11.999C9.58508 12.6802 9.85663 13.333 10.3383 13.8147C10.82 14.2964 11.4727 14.5679 12.154 14.57C12.8354 14.5682 13.4883 14.2967 13.9703 13.815C14.4522 13.3333 14.7239 12.6804 14.726 11.999C14.7241 11.3174 14.4525 10.6643 13.9706 10.1824C13.4887 9.70043 12.8355 9.42886 12.154 9.42701C11.4724 9.42912 10.8194 9.70095 10.3376 10.1831C9.85587 10.6652 9.58455 11.3184 9.58297 12V11.999Z" fill="black"/>
</svg>
