<svg width="16" height="16" viewBox="0 0 16 16" fill="none" xmlns="http://www.w3.org/2000/svg">
<path d="M14.3472 3.34334C14.3192 3.05734 14.0619 2.85734 13.7759 2.85734C10.1472 2.85734 8.46188 1.31467 8.46188 1.31467C8.41027 1.26054 8.34821 1.21744 8.27945 1.188C8.21069 1.15855 8.13668 1.14337 8.06188 1.14337C7.98709 1.14337 7.91307 1.15855 7.84431 1.188C7.77556 1.21744 7.71349 1.26054 7.66188 1.31467C7.66188 1.31467 6.03322 2.85734 2.34655 2.85734C2.06121 2.85734 1.80388 3.05734 1.77521 3.34334C1.77521 3.42867 0.661214 12.4007 7.88988 14.8287C7.94655 14.8573 8.00388 14.8573 8.06121 14.8573C8.11855 14.8573 8.17521 14.8573 8.23255 14.8287C15.4612 12.4287 14.3472 3.45734 14.3472 3.34334ZM12.9192 7.91467C12.2332 10.8573 10.5759 12.8007 8.06188 13.686C5.51921 12.772 3.89055 10.8287 3.20455 7.91467C2.80455 6.28601 2.83321 4.74334 2.89055 4.00067C5.69055 3.88601 7.37588 2.97201 8.09055 2.45734C8.80455 2.97201 10.4905 3.88601 13.2905 4.00067C13.2905 4.74334 13.3192 6.25734 12.9192 7.91467Z" fill="black"/>
</svg>
