<svg width="24" height="24" viewBox="0 0 24 24" fill="none" xmlns="http://www.w3.org/2000/svg">
<path fill-rule="evenodd" clip-rule="evenodd" d="M12 1.713C10.8632 1.713 9.77308 2.16456 8.9693 2.96834C8.16551 3.77212 7.71396 4.86228 7.71396 5.999V6.856H4.28996C4.0616 6.856 3.8426 6.94671 3.68114 7.10818C3.51967 7.26965 3.42896 7.48865 3.42896 7.717V19.713C3.42896 20.3949 3.69983 21.0488 4.18198 21.531C4.66414 22.0131 5.31808 22.284 5.99996 22.284H18C18.3376 22.284 18.6719 22.2175 18.9838 22.0883C19.2958 21.9591 19.5792 21.7697 19.8179 21.531C20.0567 21.2922 20.246 21.0088 20.3752 20.6969C20.5045 20.3849 20.571 20.0506 20.571 19.713V7.717C20.571 7.48865 20.4802 7.26965 20.3188 7.10818C20.1573 6.94671 19.9383 6.856 19.71 6.856H16.286V5.999C16.286 4.86228 15.8344 3.77212 15.0306 2.96834C14.2268 2.16456 13.1367 1.713 12 1.713ZM14.571 6.856V5.999C14.571 5.31713 14.3001 4.66318 13.8179 4.18103C13.3358 3.69887 12.6818 3.428 12 3.428C11.3181 3.428 10.6641 3.69887 10.182 4.18103C9.69983 4.66318 9.42896 5.31713 9.42896 5.999V6.856H14.571ZM7.71396 8.57H5.14296V19.713C5.14296 20.186 5.52696 20.57 5.99996 20.57H18C18.2272 20.57 18.4452 20.4797 18.6059 20.319C18.7667 20.1583 18.857 19.9403 18.857 19.713V8.57H7.71396Z" fill="black"/>
</svg>
