<svg width="24" height="24" viewBox="0 0 24 24" fill="none" xmlns="http://www.w3.org/2000/svg">
<path fill-rule="evenodd" clip-rule="evenodd" d="M3.42901 1.713V20.57H22.286V22.284H2.57001C2.35601 22.284 2.10001 22.199 1.97001 22.027C1.88958 21.949 1.82544 21.8558 1.78132 21.7528C1.7372 21.6498 1.71398 21.539 1.71301 21.427V1.713H3.43001H3.42901ZM13.972 15.17L10.286 11.485L5.74301 16.028L4.54301 14.828L9.68601 9.685C9.76343 9.6038 9.85653 9.53915 9.95966 9.49499C10.0628 9.45082 10.1738 9.42805 10.286 9.42805C10.3982 9.42805 10.5092 9.45082 10.6124 9.49499C10.7155 9.53915 10.8086 9.6038 10.886 9.685L14.572 13.37L20.829 7.113L22.029 8.313L15.172 15.17C15.0946 15.2512 15.0015 15.3158 14.8984 15.36C14.7952 15.4042 14.6842 15.4269 14.572 15.4269C14.4598 15.4269 14.3488 15.4042 14.2457 15.36C14.1425 15.3158 14.0494 15.2512 13.972 15.17Z" fill="black"/>
</svg>
