<svg width="24" height="24" viewBox="0 0 24 24" fill="none" xmlns="http://www.w3.org/2000/svg">
<path fill-rule="evenodd" clip-rule="evenodd" d="M7.71401 12.003C7.71401 12.2281 7.66968 12.451 7.58354 12.6589C7.4974 12.8669 7.37115 13.0558 7.21199 13.215C7.05283 13.3741 6.86388 13.5004 6.65593 13.5865C6.44798 13.6727 6.2251 13.717 6.00001 13.717C5.77493 13.717 5.55204 13.6727 5.34409 13.5865C5.13614 13.5004 4.94719 13.3741 4.78803 13.215C4.62887 13.0558 4.50262 12.8669 4.41648 12.6589C4.33034 12.451 4.28601 12.2281 4.28601 12.003C4.28601 11.5484 4.46659 11.1125 4.78803 10.791C5.10947 10.4696 5.54543 10.289 6.00001 10.289C6.45459 10.289 6.89055 10.4696 7.21199 10.791C7.53343 11.1125 7.71401 11.5484 7.71401 12.003ZM12 13.718C12.4547 13.718 12.8908 13.5374 13.2123 13.2158C13.5339 12.8943 13.7145 12.4582 13.7145 12.0035C13.7145 11.5488 13.5339 11.1127 13.2123 10.7912C12.8908 10.4696 12.4547 10.289 12 10.289C11.5453 10.289 11.1092 10.4696 10.7877 10.7912C10.4661 11.1127 10.2855 11.5488 10.2855 12.0035C10.2855 12.4582 10.4661 12.8943 10.7877 13.2158C11.1092 13.5374 11.5453 13.718 12 13.718ZM18 13.718C18.4547 13.718 18.8908 13.5374 19.2123 13.2158C19.5339 12.8943 19.7145 12.4582 19.7145 12.0035C19.7145 11.5488 19.5339 11.1127 19.2123 10.7912C18.8908 10.4696 18.4547 10.289 18 10.289C17.5453 10.289 17.1092 10.4696 16.7877 10.7912C16.4661 11.1127 16.2855 11.5488 16.2855 12.0035C16.2855 12.4582 16.4661 12.8943 16.7877 13.2158C17.1092 13.5374 17.5453 13.718 18 13.718Z" fill="black"/>
</svg>
