<svg width="24" height="24" viewBox="0 0 24 24" fill="none" xmlns="http://www.w3.org/2000/svg">
<path fill-rule="evenodd" clip-rule="evenodd" d="M6.21396 1.715H17.786C19.329 1.715 20.572 2.872 20.572 4.286V18.001C20.5712 18.2282 20.4805 18.4459 20.3197 18.6065C20.159 18.767 19.9412 18.8575 19.714 18.858V21.429C19.7132 21.656 19.6226 21.8736 19.4621 22.0341C19.3015 22.1947 19.084 22.2852 18.857 22.286H16.286C16.0589 22.2852 15.8414 22.1947 15.6808 22.0341C15.5203 21.8736 15.4297 21.656 15.429 21.429V18.858H8.57195V21.429C8.57116 21.6562 8.48048 21.8739 8.31972 22.0345C8.15895 22.195 7.94118 22.2855 7.71396 22.286H5.14296C4.91591 22.2852 4.69839 22.1947 4.53784 22.0341C4.37729 21.8736 4.28675 21.656 4.28595 21.429V18.858C4.05874 18.8572 3.84106 18.7665 3.68049 18.6058C3.51991 18.445 3.42948 18.2272 3.42896 18V4.286C3.42896 2.872 4.67196 1.715 6.21396 1.715ZM17.786 3.429H6.21396C5.61396 3.429 5.14296 3.815 5.14296 4.286V6.001H18.857V4.286C18.857 3.815 18.386 3.429 17.786 3.429ZM5.14296 12.001H18.857V7.715H5.14296V12V12.001ZM5.99996 20.572H6.85696V18.858H5.99996V20.572ZM5.14296 13.715V17.143H18.857V13.715H5.14296ZM17.143 20.572H18V18.858H17.143V20.572ZM6.85696 16.285C7.08438 16.285 7.30249 16.1947 7.4633 16.0338C7.62411 15.873 7.71446 15.6549 7.71446 15.4275C7.71446 15.2001 7.62411 14.982 7.4633 14.8212C7.30249 14.6603 7.08438 14.57 6.85696 14.57C6.62953 14.57 6.41142 14.6603 6.25061 14.8212C6.0898 14.982 5.99945 15.2001 5.99945 15.4275C5.99945 15.6549 6.0898 15.873 6.25061 16.0338C6.41142 16.1947 6.62953 16.285 6.85696 16.285ZM17.143 16.285C17.3704 16.285 17.5885 16.1947 17.7493 16.0338C17.9101 15.873 18.0005 15.6549 18.0005 15.4275C18.0005 15.2001 17.9101 14.982 17.7493 14.8212C17.5885 14.6603 17.3704 14.57 17.143 14.57C16.9155 14.57 16.6974 14.6603 16.5366 14.8212C16.3758 14.982 16.2855 15.2001 16.2855 15.4275C16.2855 15.6549 16.3758 15.873 16.5366 16.0338C16.6974 16.1947 16.9155 16.285 17.143 16.285Z" fill="black"/>
</svg>
