<svg width="24" height="24" viewBox="0 0 24 24" fill="none" xmlns="http://www.w3.org/2000/svg">
<path d="M20.5491 7.22L19.9491 6.62C16.9491 3.62 12.4061 3.063 8.84905 4.95C8.10862 5.33178 7.42972 5.82259 6.83505 6.406L6.62005 6.621L6.40605 6.835C5.80605 7.478 5.33505 8.163 4.94905 8.849C3.06305 12.406 3.62005 16.949 6.62005 19.949L7.22005 20.549L13.2631 14.506L19.3061 20.549L20.5061 19.349L14.4631 13.263L20.5491 7.221V7.22ZM18.0631 7.22L15.6631 9.62C13.8118 8.00533 11.5065 7.00284 9.06305 6.75C11.8491 4.992 15.4921 5.163 18.0631 7.22ZM7.22005 18.064C6.2079 16.801 5.62138 15.2502 5.5445 13.6335C5.46762 12.0168 5.90432 10.4173 6.79205 9.064C7.05346 11.5053 8.05527 13.8083 9.66305 15.664L7.22005 18.064ZM8.46305 8.464C10.6061 8.593 12.7061 9.407 14.4631 10.864L10.8631 14.464C9.40605 12.707 8.59205 10.607 8.46305 8.464Z" fill="#0E0F0C"/>
</svg>
