<svg width="24" height="24" viewBox="0 0 24 24" fill="none" xmlns="http://www.w3.org/2000/svg">
<path fill-rule="evenodd" clip-rule="evenodd" d="M16.629 11.999L15.429 10.799L18.514 7.71301H2.57202V5.99901H18.514L15.43 2.91301L16.63 1.71301L21.173 6.25601C21.2542 6.33343 21.3189 6.42653 21.363 6.52966C21.4072 6.63279 21.43 6.74382 21.43 6.85601C21.43 6.96821 21.4072 7.07923 21.363 7.18237C21.3189 7.2855 21.2542 7.37859 21.173 7.45601L16.629 11.999ZM7.37202 11.998L8.57202 13.198L5.48602 16.284H21.429V17.998H5.48602L8.57202 21.084L7.37202 22.284L2.82902 17.741C2.74782 17.6636 2.68318 17.5705 2.63901 17.4674C2.59484 17.3642 2.57207 17.2532 2.57207 17.141C2.57207 17.0288 2.59484 16.9178 2.63901 16.8147C2.68318 16.7115 2.74782 16.6184 2.82902 16.541L7.37202 11.998Z" fill="black"/>
</svg>
