<svg width="24" height="24" viewBox="0 0 24 24" fill="none" xmlns="http://www.w3.org/2000/svg">
<path d="M15.257 14.014C16.1001 13.4776 16.7938 12.7365 17.2734 11.8598C17.753 10.9831 18.003 9.9993 18 9C18 5.7 15.3 3 12 3C8.70001 3 6.00001 5.7 6.00001 9C6.00001 11.1 7.07101 12.943 8.74301 14.014C6.12901 15.257 4.28601 17.914 4.28601 21H6.00001C6.00001 17.7 8.70001 15 12 15C15.3 15 18 17.7 18 21H19.714C19.714 17.914 17.872 15.257 15.257 14.014ZM7.71401 9C7.71718 7.86426 8.16975 6.77593 8.97285 5.97284C9.77594 5.16974 10.8643 4.71717 12 4.714C13.1358 4.71717 14.2241 5.16974 15.0272 5.97284C15.8303 6.77593 16.2828 7.86426 16.286 9C16.2828 10.1357 15.8303 11.2241 15.0272 12.0272C14.2241 12.8303 13.1358 13.2828 12 13.286C10.8643 13.2828 9.77594 12.8303 8.97285 12.0272C8.16975 11.2241 7.71718 10.1357 7.71401 9Z" fill="black"/>
</svg>
