<svg width="16" height="16" viewBox="0 0 16 16" fill="none" xmlns="http://www.w3.org/2000/svg">
<path d="M7.99991 1.14331C4.22858 1.14331 1.14258 4.22864 1.14258 7.99997C1.14258 11.7713 4.22858 14.8566 7.99991 14.8566C11.7712 14.8566 14.8572 11.7713 14.8572 7.99997C14.8572 4.22797 11.7712 1.14264 7.99991 1.14264V1.14331ZM13.6859 7.42864H10.8286C10.7426 5.62864 10.2859 3.91464 9.48591 2.48597C11.7426 3.11464 13.4572 5.05731 13.6859 7.42864ZM7.99991 13.7146H7.97124C6.97124 12.3146 6.39991 10.5146 6.31391 8.57197H9.71391C9.62858 10.5146 9.05725 12.3146 8.05725 13.7146H7.99991ZM6.31458 7.42864C6.39991 5.48664 6.99991 3.68664 7.97124 2.28664H8.02858C9.02858 3.68664 9.59991 5.48664 9.71458 7.42931H6.31458V7.42864ZM6.48591 2.48597C5.68591 3.91464 5.22858 5.62864 5.14258 7.42864H2.31391C2.54258 5.05731 4.25724 3.11464 6.48658 2.48664L6.48591 2.48597ZM2.31458 8.57197H5.14258C5.22858 10.372 5.68591 12.0573 6.48591 13.5146C4.25725 12.886 2.54258 10.9433 2.31458 8.57197ZM9.51458 13.5146C10.2859 12.086 10.7426 10.372 10.8279 8.57197H13.6572C13.4572 10.9433 11.7712 12.886 9.51391 13.5146H9.51458Z" fill="black"/>
</svg>
