<svg width="24" height="24" viewBox="0 0 24 24" fill="none" xmlns="http://www.w3.org/2000/svg">
<path fill-rule="evenodd" clip-rule="evenodd" d="M19.2 4.715C17.271 2.786 14.7 1.715 12 1.715C6.38599 1.715 1.79999 6.301 1.79999 11.915C1.79999 13.715 2.27099 15.472 3.17099 17.015L1.71399 22.286L7.11399 20.872C8.6133 21.6879 10.2931 22.1152 12 22.115C17.614 22.115 22.2 17.529 22.2 11.915C22.2 9.172 21.128 6.643 19.2 4.715ZM12 20.4C10.457 20.4 8.99999 19.971 7.67099 19.2L7.37099 19.028L4.15699 19.885L5.01399 16.757L4.79999 16.457C3.94299 15.128 3.51399 13.542 3.51399 11.957C3.51399 7.285 7.32899 3.471 12 3.471C14.271 3.471 16.371 4.371 18 5.957C18.789 6.74414 19.4148 7.67938 19.8415 8.70903C20.2681 9.73868 20.4871 10.8425 20.486 11.957C20.486 16.585 16.671 20.4 12 20.4ZM16.628 14.057C16.371 13.928 15.128 13.328 14.871 13.242C14.657 13.157 14.486 13.114 14.314 13.371C14.064 13.7168 13.7922 14.0461 13.5 14.357C13.371 14.528 13.2 14.528 12.943 14.4C12.686 14.271 11.871 14.014 10.886 13.157C10.114 12.471 9.59999 11.657 9.47099 11.4C9.34299 11.142 9.47099 11.014 9.59999 10.885C9.72899 10.757 9.85699 10.585 9.98599 10.457C10.114 10.328 10.157 10.2 10.243 10.028C10.328 9.857 10.286 9.728 10.243 9.6C10.2 9.471 9.68599 8.228 9.47099 7.714C9.25699 7.2 9.04299 7.285 8.91399 7.285H8.44299C8.31416 7.28516 8.18676 7.31188 8.06872 7.3635C7.95069 7.41512 7.84457 7.49052 7.75699 7.585C7.54299 7.842 6.85699 8.442 6.85699 9.728C6.85699 10.971 7.75699 12.214 7.88599 12.342C8.01399 12.514 9.68599 15.085 12.257 16.2C12.857 16.457 13.329 16.628 13.714 16.757C14.314 16.971 14.871 16.928 15.3 16.842C15.771 16.757 16.8 16.242 17.014 15.642C17.229 15.042 17.229 14.528 17.143 14.442C17.057 14.228 16.886 14.185 16.628 14.057Z" fill="black"/>
</svg>
